<?xml version="1.0" encoding="UTF-8" standalone="no"?>
<!DOCTYPE svg PUBLIC "-//W3C//DTD SVG 1.1//EN"
 "http://www.w3.org/Graphics/SVG/1.1/DTD/svg11.dtd">
<!-- Generated by graphviz version 2.47.0 (20210316.0004)
 -->
<!-- Title: DependecyMap Pages: 1 -->
<svg width="561pt" height="226pt"
 viewBox="0.00 0.00 561.00 226.00" xmlns="http://www.w3.org/2000/svg" xmlns:xlink="http://www.w3.org/1999/xlink">
<g id="graph0" class="graph" transform="scale(1 1) rotate(0) translate(4 222)">
<title>DependecyMap</title>
<polygon fill="white" stroke="transparent" points="-4,4 -4,-222 557,-222 557,4 -4,4"/>
<!-- SIMM:EquitySecurity(1.0.0) -->
<g id="node1" class="node">
<title>SIMM:EquitySecurity(1.0.0)</title>
<g id="a_node1"><a xlink:href="http://localhost:8080/FusionRegistry-10.3.5/ws/public/sdmxapi/rest/datastructure/SIMM/EquitySecurity/1.0.0" xlink:title="SIMM:EquitySecurity(1.0.0)" target="_blank">
<polygon fill="none" stroke="black" points="290,-0.5 290,-137.5 553,-137.5 553,-0.5 290,-0.5"/>
<text text-anchor="middle" x="327.5" y="-122.3" font-family="Times New Roman,serif" font-size="14.00">SIMM</text>
<polyline fill="none" stroke="black" points="365,-114.5 365,-137.5 "/>
<text text-anchor="middle" x="425.5" y="-122.3" font-family="Times New Roman,serif" font-size="14.00">EquitySecurity</text>
<polyline fill="none" stroke="black" points="486,-114.5 486,-137.5 "/>
<text text-anchor="middle" x="519.5" y="-122.3" font-family="Times New Roman,serif" font-size="14.00">1.0.0</text>
<polyline fill="none" stroke="black" points="290,-114.5 553,-114.5 "/>
<text text-anchor="middle" x="421.5" y="-99.3" font-family="Times New Roman,serif" font-size="14.00">Dim &#45; SIMM.REF.CS_REFERENCE:ESI</text>
<text text-anchor="middle" x="421.5" y="-84.3" font-family="Times New Roman,serif" font-size="14.00">Equity security identifier</text>
<polyline fill="none" stroke="black" points="290,-76.5 553,-76.5 "/>
<text text-anchor="middle" x="421.5" y="-61.3" font-family="Times New Roman,serif" font-size="14.00">Att &#45; SIMM.REF.CS_REFERENCE:CUR</text>
<text text-anchor="middle" x="421.5" y="-46.3" font-family="Times New Roman,serif" font-size="14.00">Currency</text>
<polyline fill="none" stroke="black" points="290,-38.5 553,-38.5 "/>
<text text-anchor="middle" x="421.5" y="-23.3" font-family="Times New Roman,serif" font-size="14.00">Att &#45; SIMM.REF.CS_REFERENCE:LFMD</text>
<text text-anchor="middle" x="421.5" y="-8.3" font-family="Times New Roman,serif" font-size="14.00">Legal final maturity date</text>
</a>
</g>
</g>
<!-- SIMM:EquitySecurityPosition(1.0.0) -->
<g id="node2" class="node">
<title>SIMM:EquitySecurityPosition(1.0.0)</title>
<g id="a_node2"><a xlink:href="http://localhost:8080/FusionRegistry-10.3.5/ws/public/sdmxapi/rest/datastructure/SIMM/EquitySecurityPosition/1.0.0" xlink:title="SIMM:EquitySecurityPosition(1.0.0)" target="_blank">
<polygon fill="none" stroke="black" points="0,-59.5 0,-196.5 254,-196.5 254,-59.5 0,-59.5"/>
<text text-anchor="middle" x="28.5" y="-181.3" font-family="Times New Roman,serif" font-size="14.00">SIMM</text>
<polyline fill="none" stroke="black" points="57,-173.5 57,-196.5 "/>
<text text-anchor="middle" x="131" y="-181.3" font-family="Times New Roman,serif" font-size="14.00">EquitySecurityPosition</text>
<polyline fill="none" stroke="black" points="205,-173.5 205,-196.5 "/>
<text text-anchor="middle" x="229.5" y="-181.3" font-family="Times New Roman,serif" font-size="14.00">1.0.0</text>
<polyline fill="none" stroke="black" points="0,-173.5 254,-173.5 "/>
<text text-anchor="middle" x="127" y="-158.3" font-family="Times New Roman,serif" font-size="14.00">Dim &#45; SIMM.REF.CS_REFERENCE:IPI</text>
<text text-anchor="middle" x="127" y="-143.3" font-family="Times New Roman,serif" font-size="14.00">Investor Party identifier</text>
<polyline fill="none" stroke="black" points="0,-135.5 254,-135.5 "/>
<text text-anchor="middle" x="127" y="-120.3" font-family="Times New Roman,serif" font-size="14.00">Dim &#45; SIMM.REF.CS_REFERENCE:ESI</text>
<text text-anchor="middle" x="127" y="-105.3" font-family="Times New Roman,serif" font-size="14.00">Equity security identifier</text>
<polyline fill="none" stroke="black" points="0,-97.5 254,-97.5 "/>
<text text-anchor="middle" x="127" y="-82.3" font-family="Times New Roman,serif" font-size="14.00">Att &#45; SIMM.REF.CS_REFERENCE:NOS</text>
<text text-anchor="middle" x="127" y="-67.3" font-family="Times New Roman,serif" font-size="14.00">Number of shares</text>
</a>
</g>
</g>
<!-- SIMM:EquitySecurityPosition(1.0.0)&#45;&gt;SIMM:EquitySecurity(1.0.0) -->
<g id="edge1" class="edge">
<title>SIMM:EquitySecurityPosition(1.0.0):ESI&#45;&gt;SIMM:EquitySecurity(1.0.0):ESI</title>
<path fill="none" stroke="black" d="M270.33,-107.87C273.42,-104.49 276.22,-100.82 280.27,-98.47"/>
<polygon fill="black" stroke="black" points="262.95,-111.54 251.99,-111.97 258.48,-113.77 254,-116 254,-116 254,-116 258.48,-113.77 256.01,-120.03 262.95,-111.54 262.95,-111.54"/>
<ellipse fill="none" stroke="black" cx="266.53" cy="-109.76" rx="4" ry="4"/>
<polygon fill="black" stroke="black" points="287.8,-91.4 290.26,-101.09 288.32,-101.58 285.86,-91.89 287.8,-91.4"/>
<polyline fill="none" stroke="black" points="290,-96 285.15,-97.23 "/>
<polygon fill="black" stroke="black" points="282.95,-92.63 285.42,-102.32 283.48,-102.82 281.01,-93.12 282.95,-92.63"/>
<polyline fill="none" stroke="black" points="285.15,-97.23 280.31,-98.46 "/>
</g>
<!-- SIMM:Party(1.0.0) -->
<g id="node3" class="node">
<title>SIMM:Party(1.0.0)</title>
<g id="a_node3"><a xlink:href="http://localhost:8080/FusionRegistry-10.3.5/ws/public/sdmxapi/rest/datastructure/SIMM/Party/1.0.0" xlink:title="SIMM:Party(1.0.0)" target="_blank">
<polygon fill="none" stroke="black" points="299.5,-156.5 299.5,-217.5 543.5,-217.5 543.5,-156.5 299.5,-156.5"/>
<text text-anchor="middle" x="342.5" y="-202.3" font-family="Times New Roman,serif" font-size="14.00">SIMM</text>
<polyline fill="none" stroke="black" points="385.5,-194.5 385.5,-217.5 "/>
<text text-anchor="middle" x="425.5" y="-202.3" font-family="Times New Roman,serif" font-size="14.00">Party</text>
<polyline fill="none" stroke="black" points="465.5,-194.5 465.5,-217.5 "/>
<text text-anchor="middle" x="504.5" y="-202.3" font-family="Times New Roman,serif" font-size="14.00">1.0.0</text>
<polyline fill="none" stroke="black" points="299.5,-194.5 543.5,-194.5 "/>
<text text-anchor="middle" x="421.5" y="-179.3" font-family="Times New Roman,serif" font-size="14.00">Dim &#45; SIMM.REF.CS_REFERENCE:PI</text>
<text text-anchor="middle" x="421.5" y="-164.3" font-family="Times New Roman,serif" font-size="14.00">Party identifier</text>
</a>
</g>
</g>
<!-- SIMM:EquitySecurityPosition(1.0.0)&#45;&gt;SIMM:Party(1.0.0) -->
<g id="edge2" class="edge">
<title>SIMM:EquitySecurityPosition(1.0.0):IPI&#45;&gt;SIMM:Party(1.0.0):PI</title>
<path fill="none" stroke="black" d="M271.32,-160.89C276.95,-165.13 281.35,-170.57 288.54,-173.29"/>
<polygon fill="black" stroke="black" points="263.47,-158.22 255.45,-150.74 258.73,-156.61 254,-155 254,-155 254,-155 258.73,-156.61 252.55,-159.26 263.47,-158.22 263.47,-158.22"/>
<ellipse fill="none" stroke="black" cx="267.25" cy="-159.51" rx="4" ry="4"/>
<polygon fill="black" stroke="black" points="298.36,-169.9 296.67,-179.76 294.7,-179.42 296.39,-169.56 298.36,-169.9"/>
<polyline fill="none" stroke="black" points="298.5,-175 293.57,-174.15 "/>
<polygon fill="black" stroke="black" points="293.43,-169.05 291.74,-178.91 289.77,-178.57 291.46,-168.72 293.43,-169.05"/>
<polyline fill="none" stroke="black" points="293.57,-174.15 288.64,-173.3 "/>
</g>
</g>
</svg>
