<?xml version="1.0" encoding="UTF-8" standalone="no"?>
<!DOCTYPE svg PUBLIC "-//W3C//DTD SVG 1.1//EN"
 "http://www.w3.org/Graphics/SVG/1.1/DTD/svg11.dtd">
<!-- Generated by graphviz version 2.47.0 (20210316.0004)
 -->
<!-- Title: DependecyMap Pages: 1 -->
<svg width="1088pt" height="323pt"
 viewBox="0.00 0.00 1088.00 323.00" xmlns="http://www.w3.org/2000/svg" xmlns:xlink="http://www.w3.org/1999/xlink">
<g id="graph0" class="graph" transform="scale(1 1) rotate(0) translate(4 319)">
<title>DependecyMap</title>
<polygon fill="white" stroke="transparent" points="-4,4 -4,-319 1084,-319 1084,4 -4,4"/>
<!-- SIMM:EquitySecurity(1.0.0) -->
<g id="node1" class="node">
<title>SIMM:EquitySecurity(1.0.0)</title>
<g id="a_node1"><a xlink:href="http://localhost:8080/FusionRegistry-10.3.5/ws/public/sdmxapi/rest/datastructure/SIMM/EquitySecurity/1.0.0" xlink:title="SIMM:EquitySecurity(1.0.0)" target="_blank">
<polygon fill="none" stroke="black" points="817,-0.5 817,-137.5 1080,-137.5 1080,-0.5 817,-0.5"/>
<text text-anchor="middle" x="854.5" y="-122.3" font-family="Times New Roman,serif" font-size="14.00">SIMM</text>
<polyline fill="none" stroke="black" points="892,-114.5 892,-137.5 "/>
<text text-anchor="middle" x="952.5" y="-122.3" font-family="Times New Roman,serif" font-size="14.00">EquitySecurity</text>
<polyline fill="none" stroke="black" points="1013,-114.5 1013,-137.5 "/>
<text text-anchor="middle" x="1046.5" y="-122.3" font-family="Times New Roman,serif" font-size="14.00">1.0.0</text>
<polyline fill="none" stroke="black" points="817,-114.5 1080,-114.5 "/>
<text text-anchor="middle" x="948.5" y="-99.3" font-family="Times New Roman,serif" font-size="14.00">Dim &#45; SIMM.REF.CS_REFERENCE:ESI</text>
<text text-anchor="middle" x="948.5" y="-84.3" font-family="Times New Roman,serif" font-size="14.00"> Equity security identifier</text>
<polyline fill="none" stroke="black" points="817,-76.5 1080,-76.5 "/>
<text text-anchor="middle" x="948.5" y="-61.3" font-family="Times New Roman,serif" font-size="14.00">Att &#45; SIMM.REF.CS_REFERENCE:CUR</text>
<text text-anchor="middle" x="948.5" y="-46.3" font-family="Times New Roman,serif" font-size="14.00"> Currency</text>
<polyline fill="none" stroke="black" points="817,-38.5 1080,-38.5 "/>
<text text-anchor="middle" x="948.5" y="-23.3" font-family="Times New Roman,serif" font-size="14.00">Att &#45; SIMM.REF.CS_REFERENCE:LFMD</text>
<text text-anchor="middle" x="948.5" y="-8.3" font-family="Times New Roman,serif" font-size="14.00"> Legal final maturity date</text>
</a>
</g>
</g>
<!-- SIMM:EquitySecurityPosition(1.0.0) -->
<g id="node2" class="node">
<title>SIMM:EquitySecurityPosition(1.0.0)</title>
<g id="a_node2"><a xlink:href="http://localhost:8080/FusionRegistry-10.3.5/ws/public/sdmxapi/rest/datastructure/SIMM/EquitySecurityPosition/1.0.0" xlink:title="SIMM:EquitySecurityPosition(1.0.0)" target="_blank">
<polygon fill="none" stroke="black" points="407.5,-59.5 407.5,-196.5 661.5,-196.5 661.5,-59.5 407.5,-59.5"/>
<text text-anchor="middle" x="436" y="-181.3" font-family="Times New Roman,serif" font-size="14.00">SIMM</text>
<polyline fill="none" stroke="black" points="464.5,-173.5 464.5,-196.5 "/>
<text text-anchor="middle" x="538.5" y="-181.3" font-family="Times New Roman,serif" font-size="14.00">EquitySecurityPosition</text>
<polyline fill="none" stroke="black" points="612.5,-173.5 612.5,-196.5 "/>
<text text-anchor="middle" x="637" y="-181.3" font-family="Times New Roman,serif" font-size="14.00">1.0.0</text>
<polyline fill="none" stroke="black" points="407.5,-173.5 661.5,-173.5 "/>
<text text-anchor="middle" x="534.5" y="-158.3" font-family="Times New Roman,serif" font-size="14.00">Dim &#45; SIMM.REF.CS_REFERENCE:IPI</text>
<text text-anchor="middle" x="534.5" y="-143.3" font-family="Times New Roman,serif" font-size="14.00"> Investor Party identifier</text>
<polyline fill="none" stroke="black" points="407.5,-135.5 661.5,-135.5 "/>
<text text-anchor="middle" x="534.5" y="-120.3" font-family="Times New Roman,serif" font-size="14.00">Dim &#45; SIMM.REF.CS_REFERENCE:ESI</text>
<text text-anchor="middle" x="534.5" y="-105.3" font-family="Times New Roman,serif" font-size="14.00"> Equity security identifier</text>
<polyline fill="none" stroke="black" points="407.5,-97.5 661.5,-97.5 "/>
<text text-anchor="middle" x="534.5" y="-82.3" font-family="Times New Roman,serif" font-size="14.00">Att &#45; SIMM.REF.CS_REFERENCE:NOS</text>
<text text-anchor="middle" x="534.5" y="-67.3" font-family="Times New Roman,serif" font-size="14.00"> Number of shares</text>
</a>
</g>
</g>
<!-- SIMM:EquitySecurityPosition(1.0.0)&#45;&gt;SIMM:EquitySecurity(1.0.0) -->
<g id="edge1" class="edge">
<title>SIMM:EquitySecurityPosition(1.0.0):ESI&#45;&gt;SIMM:EquitySecurity(1.0.0):ESI</title>
<path fill="none" stroke="black" d="M680.66,-115.51C732.12,-112.6 751.98,-97.82 806.74,-96.15"/>
<polygon fill="black" stroke="black" points="672.5,-115.73 662.38,-111.5 667.5,-115.86 662.5,-116 662.5,-116 662.5,-116 667.5,-115.86 662.62,-120.5 672.5,-115.73 672.5,-115.73"/>
<ellipse fill="none" stroke="black" cx="676.49" cy="-115.62" rx="4" ry="4"/>
<polygon fill="black" stroke="black" points="815.93,-91.02 816.07,-101.01 814.07,-101.04 813.93,-91.05 815.93,-91.02"/>
<polyline fill="none" stroke="black" points="817,-96 812,-96.07 "/>
<polygon fill="black" stroke="black" points="810.93,-91.09 811.08,-101.09 809.08,-101.12 808.93,-91.12 810.93,-91.09"/>
<polyline fill="none" stroke="black" points="812,-96.07 807,-96.15 "/>
</g>
<!-- SIMM:Party(1.0.0) -->
<g id="node5" class="node">
<title>SIMM:Party(1.0.0)</title>
<g id="a_node5"><a xlink:href="http://localhost:8080/FusionRegistry-10.3.5/ws/public/sdmxapi/rest/datastructure/SIMM/Party/1.0.0" xlink:title="SIMM:Party(1.0.0)" target="_blank">
<polygon fill="none" stroke="black" points="826.5,-156.5 826.5,-217.5 1070.5,-217.5 1070.5,-156.5 826.5,-156.5"/>
<text text-anchor="middle" x="869.5" y="-202.3" font-family="Times New Roman,serif" font-size="14.00">SIMM</text>
<polyline fill="none" stroke="black" points="912.5,-194.5 912.5,-217.5 "/>
<text text-anchor="middle" x="952.5" y="-202.3" font-family="Times New Roman,serif" font-size="14.00">Party</text>
<polyline fill="none" stroke="black" points="992.5,-194.5 992.5,-217.5 "/>
<text text-anchor="middle" x="1031.5" y="-202.3" font-family="Times New Roman,serif" font-size="14.00">1.0.0</text>
<polyline fill="none" stroke="black" points="826.5,-194.5 1070.5,-194.5 "/>
<text text-anchor="middle" x="948.5" y="-179.3" font-family="Times New Roman,serif" font-size="14.00">Dim &#45; SIMM.REF.CS_REFERENCE:PI</text>
<text text-anchor="middle" x="948.5" y="-164.3" font-family="Times New Roman,serif" font-size="14.00"> Party identifier</text>
</a>
</g>
</g>
<!-- SIMM:EquitySecurityPosition(1.0.0)&#45;&gt;SIMM:Party(1.0.0) -->
<g id="edge2" class="edge">
<title>SIMM:EquitySecurityPosition(1.0.0):IPI&#45;&gt;SIMM:Party(1.0.0):PI</title>
<path fill="none" stroke="black" d="M680.52,-155.44C735.83,-158.21 756.71,-173.28 815.34,-174.87"/>
<polygon fill="black" stroke="black" points="672.5,-155.24 662.61,-150.5 667.5,-155.12 662.5,-155 662.5,-155 662.5,-155 667.5,-155.12 662.39,-159.5 672.5,-155.24 672.5,-155.24"/>
<ellipse fill="none" stroke="black" cx="676.5" cy="-155.34" rx="4" ry="4"/>
<polygon fill="black" stroke="black" points="824.57,-169.99 824.43,-179.99 822.43,-179.96 822.57,-169.96 824.57,-169.99"/>
<polyline fill="none" stroke="black" points="825.5,-175 820.5,-174.93 "/>
<polygon fill="black" stroke="black" points="819.57,-169.92 819.43,-179.92 817.43,-179.89 817.57,-169.89 819.57,-169.92"/>
<polyline fill="none" stroke="black" points="820.5,-174.93 815.5,-174.87 "/>
</g>
<!-- SIMM:FinancialAsset(1.0.0) -->
<g id="node3" class="node">
<title>SIMM:FinancialAsset(1.0.0)</title>
<g id="a_node3"><a xlink:href="http://localhost:8080/FusionRegistry-10.3.5/ws/public/sdmxapi/rest/datastructure/SIMM/FinancialAsset/1.0.0" xlink:title="SIMM:FinancialAsset(1.0.0)" target="_blank">
<polygon fill="none" stroke="black" points="288,-215.5 288,-314.5 781,-314.5 781,-215.5 288,-215.5"/>
<text text-anchor="middle" x="364" y="-299.3" font-family="Times New Roman,serif" font-size="14.00">SIMM</text>
<polyline fill="none" stroke="black" points="440,-291.5 440,-314.5 "/>
<text text-anchor="middle" x="538.5" y="-299.3" font-family="Times New Roman,serif" font-size="14.00">FinancialAsset</text>
<polyline fill="none" stroke="black" points="637,-291.5 637,-314.5 "/>
<text text-anchor="middle" x="709" y="-299.3" font-family="Times New Roman,serif" font-size="14.00">1.0.0</text>
<polyline fill="none" stroke="black" points="288,-291.5 781,-291.5 "/>
<text text-anchor="middle" x="534.5" y="-276.3" font-family="Times New Roman,serif" font-size="14.00">Dim &#45; SIMM.REF.CS_REFERENCE:ID</text>
<text text-anchor="middle" x="534.5" y="-261.3" font-family="Times New Roman,serif" font-size="14.00"> Artificial identifer used in DSDs that have no other identifier to create valid structures</text>
<polyline fill="none" stroke="black" points="288,-253.5 781,-253.5 "/>
<text text-anchor="middle" x="534.5" y="-238.3" font-family="Times New Roman,serif" font-size="14.00">Att &#45; SIMM.REF.CS_REFERENCE:CA</text>
<text text-anchor="middle" x="534.5" y="-223.3" font-family="Times New Roman,serif" font-size="14.00"> Carrying amount</text>
</a>
</g>
</g>
<!-- SIMM:FinancialAsset_ESP(1.0.0) -->
<g id="node4" class="node">
<title>SIMM:FinancialAsset_ESP(1.0.0)</title>
<g id="a_node4"><a xlink:href="http://localhost:8080/FusionRegistry-10.3.5/ws/public/sdmxapi/rest/datastructure/SIMM/FinancialAsset_ESP/1.0.0" xlink:title="SIMM:FinancialAsset_ESP(1.0.0)" target="_blank">
<polygon fill="none" stroke="black" points="0,-137.5 0,-274.5 252,-274.5 252,-137.5 0,-137.5"/>
<text text-anchor="middle" x="30.5" y="-259.3" font-family="Times New Roman,serif" font-size="14.00">SIMM</text>
<polyline fill="none" stroke="black" points="61,-251.5 61,-274.5 "/>
<text text-anchor="middle" x="130" y="-259.3" font-family="Times New Roman,serif" font-size="14.00">FinancialAsset_ESP</text>
<polyline fill="none" stroke="black" points="199,-251.5 199,-274.5 "/>
<text text-anchor="middle" x="225.5" y="-259.3" font-family="Times New Roman,serif" font-size="14.00">1.0.0</text>
<polyline fill="none" stroke="black" points="0,-251.5 252,-251.5 "/>
<text text-anchor="middle" x="126" y="-236.3" font-family="Times New Roman,serif" font-size="14.00">Dim &#45; SIMM.REF.CS_REFERENCE:AC</text>
<text text-anchor="middle" x="126" y="-221.3" font-family="Times New Roman,serif" font-size="14.00"> Accounting classification</text>
<polyline fill="none" stroke="black" points="0,-213.5 252,-213.5 "/>
<text text-anchor="middle" x="126" y="-198.3" font-family="Times New Roman,serif" font-size="14.00">Dim &#45; SIMM.REF.CS_REFERENCE:IPI</text>
<text text-anchor="middle" x="126" y="-183.3" font-family="Times New Roman,serif" font-size="14.00"> Investor Party identifier</text>
<polyline fill="none" stroke="black" points="0,-175.5 252,-175.5 "/>
<text text-anchor="middle" x="126" y="-160.3" font-family="Times New Roman,serif" font-size="14.00">Dim &#45; SIMM.REF.CS_REFERENCE:ESI</text>
<text text-anchor="middle" x="126" y="-145.3" font-family="Times New Roman,serif" font-size="14.00"> Equity security identifier</text>
</a>
</g>
</g>
<!-- SIMM:FinancialAsset_ESP(1.0.0)&#45;&gt;SIMM:EquitySecurityPosition(1.0.0) -->
<g id="edge3" class="edge">
<title>SIMM:FinancialAsset_ESP(1.0.0):ESI&#45;&gt;SIMM:EquitySecurityPosition(1.0.0):ESI</title>
<path fill="none" stroke="black" d="M270.15,-155.05C322.7,-149.32 340.18,-119.53 396.35,-116.29"/>
<polygon fill="black" stroke="black" points="261.99,-155.48 251.76,-151.51 256.99,-155.74 252,-156 252,-156 252,-156 256.99,-155.74 252.24,-160.49 261.99,-155.48 261.99,-155.48"/>
<ellipse fill="none" stroke="black" cx="265.98" cy="-155.27" rx="4" ry="4"/>
<polygon fill="black" stroke="black" points="405.36,-111.03 405.64,-121.03 403.64,-121.08 403.36,-111.09 405.36,-111.03"/>
<polyline fill="none" stroke="black" points="406.5,-116 401.5,-116.14 "/>
<polygon fill="black" stroke="black" points="400.36,-111.17 400.64,-121.17 398.64,-121.22 398.36,-111.23 400.36,-111.17"/>
<polyline fill="none" stroke="black" points="401.5,-116.14 396.5,-116.28 "/>
</g>
<!-- SIMM:FinancialAsset_ESP(1.0.0)&#45;&gt;SIMM:FinancialAsset(1.0.0) -->
<g id="edge4" class="edge">
<title>SIMM:FinancialAsset_ESP(1.0.0):AC&#45;&gt;SIMM:FinancialAsset(1.0.0):ID</title>
<path fill="none" stroke="black" d="M261.53,-236.14C270.51,-243.58 269.47,-262.23 278.36,-269.76"/>
<polygon fill="black" stroke="black" points="262.59,-232.8 252,-233 260.4,-239.45 262.59,-232.8"/>
<polygon fill="black" stroke="black" points="277.41,-273.14 288,-273 279.63,-266.5 277.41,-273.14"/>
</g>
</g>
</svg>
