<?xml version="1.0" encoding="UTF-8" standalone="no"?>
<!DOCTYPE svg PUBLIC "-//W3C//DTD SVG 1.1//EN"
 "http://www.w3.org/Graphics/SVG/1.1/DTD/svg11.dtd">
<!-- Generated by graphviz version 2.47.0 (20210316.0004)
 -->
<!-- Title: DependecyMap Pages: 1 -->
<svg width="961pt" height="538pt"
 viewBox="0.00 0.00 961.00 537.50" xmlns="http://www.w3.org/2000/svg" xmlns:xlink="http://www.w3.org/1999/xlink">
<g id="graph0" class="graph" transform="scale(1 1) rotate(0) translate(4 533.5)">
<title>DependecyMap</title>
<polygon fill="white" stroke="transparent" points="-4,4 -4,-533.5 957,-533.5 957,4 -4,4"/>
<text text-anchor="middle" x="476.5" y="-38.8" font-family="Times New Roman,serif" font-size="14.00">Entity Relationship Model</text>
<text text-anchor="middle" x="476.5" y="-7.8" font-family="Times New Roman,serif" font-size="14.00">generated 2021&#45;03&#45;31T00:46:45.882+02:00</text>
<!-- SIMM:EquitySecurity(1.0.0) -->
<g id="node1" class="node">
<title>SIMM:EquitySecurity(1.0.0)</title>
<g id="a_node1"><a xlink:href="http://localhost:8080/ws/public/sdmxapi/rest/datastructure/SIMM/EquitySecurity/1.0.0" xlink:title="Equity Security" target="_blank">
<path fill="none" stroke="black" d="M665,-199.5C665,-199.5 941,-199.5 941,-199.5 947,-199.5 953,-205.5 953,-211.5 953,-211.5 953,-339.5 953,-339.5 953,-345.5 947,-351.5 941,-351.5 941,-351.5 665,-351.5 665,-351.5 659,-351.5 653,-345.5 653,-339.5 653,-339.5 653,-211.5 653,-211.5 653,-205.5 659,-199.5 665,-199.5"/>
<text text-anchor="middle" x="697" y="-336.3" font-family="Times New Roman,serif" font-size="14.00">SIMM</text>
<polyline fill="none" stroke="black" points="741,-328.5 741,-351.5 "/>
<text text-anchor="middle" x="807.5" y="-336.3" font-family="Times New Roman,serif" font-size="14.00">EquitySecurity</text>
<polyline fill="none" stroke="black" points="874,-328.5 874,-351.5 "/>
<text text-anchor="middle" x="913.5" y="-336.3" font-family="Times New Roman,serif" font-size="14.00">1.0.0</text>
<polyline fill="none" stroke="black" points="653,-328.5 953,-328.5 "/>
<text text-anchor="middle" x="803" y="-313.3" font-family="Times New Roman,serif" font-size="14.00">Dim &#45; SIMM.REF:CS_REFERENCE(1.0.0).ESI</text>
<text text-anchor="middle" x="803" y="-298.3" font-family="Times New Roman,serif" font-size="14.00">Equity security identifier [String]</text>
<polyline fill="none" stroke="black" points="653,-290.5 953,-290.5 "/>
<text text-anchor="middle" x="803" y="-275.3" font-family="Times New Roman,serif" font-size="14.00">Att &#45; SIMM.REF:CS_REFERENCE(1.0.0).CUR</text>
<text text-anchor="middle" x="803" y="-260.3" font-family="Times New Roman,serif" font-size="14.00">Currency</text>
<text text-anchor="middle" x="803" y="-245.3" font-family="Times New Roman,serif" font-size="14.00">[🧾SIMM.REF:CL_CUR(1.0.0)]</text>
<polyline fill="none" stroke="black" points="653,-237.5 953,-237.5 "/>
<text text-anchor="middle" x="803" y="-222.3" font-family="Times New Roman,serif" font-size="14.00">Att &#45; SIMM.REF:CS_REFERENCE(1.0.0).LFMD</text>
<text text-anchor="middle" x="803" y="-207.3" font-family="Times New Roman,serif" font-size="14.00">Legal final maturity date [GregorianDay]</text>
</a>
</g>
</g>
<!-- SIMM:EquitySecurityPosition(1.0.0) -->
<g id="node2" class="node">
<title>SIMM:EquitySecurityPosition(1.0.0)</title>
<g id="a_node2"><a xlink:href="http://localhost:8080/ws/public/sdmxapi/rest/datastructure/SIMM/EquitySecurityPosition/1.0.0" xlink:title="Equity security position" target="_blank">
<path fill="none" stroke="black" d="M338,-274C338,-274 604,-274 604,-274 610,-274 616,-280 616,-286 616,-286 616,-399 616,-399 616,-405 610,-411 604,-411 604,-411 338,-411 338,-411 332,-411 326,-405 326,-399 326,-399 326,-286 326,-286 326,-280 332,-274 338,-274"/>
<text text-anchor="middle" x="360.5" y="-395.8" font-family="Times New Roman,serif" font-size="14.00">SIMM</text>
<polyline fill="none" stroke="black" points="395,-388 395,-411 "/>
<text text-anchor="middle" x="475" y="-395.8" font-family="Times New Roman,serif" font-size="14.00">EquitySecurityPosition</text>
<polyline fill="none" stroke="black" points="555,-388 555,-411 "/>
<text text-anchor="middle" x="585.5" y="-395.8" font-family="Times New Roman,serif" font-size="14.00">1.0.0</text>
<polyline fill="none" stroke="black" points="326,-388 616,-388 "/>
<text text-anchor="middle" x="471" y="-372.8" font-family="Times New Roman,serif" font-size="14.00">Dim &#45; SIMM.REF:CS_REFERENCE(1.0.0).IPI</text>
<text text-anchor="middle" x="471" y="-357.8" font-family="Times New Roman,serif" font-size="14.00">Investor Party identifier [String]</text>
<polyline fill="none" stroke="black" points="326,-350 616,-350 "/>
<text text-anchor="middle" x="471" y="-334.8" font-family="Times New Roman,serif" font-size="14.00">Dim &#45; SIMM.REF:CS_REFERENCE(1.0.0).ESI</text>
<text text-anchor="middle" x="471" y="-319.8" font-family="Times New Roman,serif" font-size="14.00">Equity security identifier [String]</text>
<polyline fill="none" stroke="black" points="326,-312 616,-312 "/>
<text text-anchor="middle" x="471" y="-296.8" font-family="Times New Roman,serif" font-size="14.00">Att &#45; SIMM.REF:CS_REFERENCE(1.0.0).NOS</text>
<text text-anchor="middle" x="471" y="-281.8" font-family="Times New Roman,serif" font-size="14.00">Number of shares [Integer]</text>
</a>
</g>
</g>
<!-- SIMM:EquitySecurityPosition(1.0.0)&#45;&gt;SIMM:EquitySecurity(1.0.0) -->
<g id="edge1" class="edge">
<title>SIMM:EquitySecurityPosition(1.0.0):ESI&#45;&gt;SIMM:EquitySecurity(1.0.0):ESI</title>
<path fill="none" stroke="black" d="M633.35,-321.96C636.4,-318.42 639.16,-314.56 643.21,-312.1"/>
<polygon fill="black" stroke="black" points="625.86,-325.87 614.92,-326.51 621.43,-328.19 617,-330.5 617,-330.5 617,-330.5 621.43,-328.19 619.08,-334.49 625.86,-325.87 625.86,-325.87"/>
<ellipse fill="none" stroke="black" cx="629.41" cy="-324.02" rx="4" ry="4"/>
<polygon fill="black" stroke="black" points="650.75,-304.92 653.31,-314.59 651.38,-315.1 648.82,-305.44 650.75,-304.92"/>
<polyline fill="none" stroke="black" points="653,-309.5 648.17,-310.78 "/>
<polygon fill="black" stroke="black" points="645.92,-306.2 648.48,-315.87 646.55,-316.38 643.99,-306.72 645.92,-306.2"/>
<polyline fill="none" stroke="black" points="648.17,-310.78 643.33,-312.06 "/>
</g>
<!-- SIMM:Party(1.0.0) -->
<g id="node7" class="node">
<title>SIMM:Party(1.0.0)</title>
<g id="a_node7"><a xlink:href="http://localhost:8080/ws/public/sdmxapi/rest/datastructure/SIMM/Party/1.0.0" xlink:title="Party" target="_blank">
<path fill="none" stroke="black" d="M674.5,-371C674.5,-371 931.5,-371 931.5,-371 937.5,-371 943.5,-377 943.5,-383 943.5,-383 943.5,-420 943.5,-420 943.5,-426 937.5,-432 931.5,-432 931.5,-432 674.5,-432 674.5,-432 668.5,-432 662.5,-426 662.5,-420 662.5,-420 662.5,-383 662.5,-383 662.5,-377 668.5,-371 674.5,-371"/>
<text text-anchor="middle" x="712" y="-416.8" font-family="Times New Roman,serif" font-size="14.00">SIMM</text>
<polyline fill="none" stroke="black" points="761.5,-409 761.5,-432 "/>
<text text-anchor="middle" x="807.5" y="-416.8" font-family="Times New Roman,serif" font-size="14.00">Party</text>
<polyline fill="none" stroke="black" points="853.5,-409 853.5,-432 "/>
<text text-anchor="middle" x="898.5" y="-416.8" font-family="Times New Roman,serif" font-size="14.00">1.0.0</text>
<polyline fill="none" stroke="black" points="662.5,-409 943.5,-409 "/>
<text text-anchor="middle" x="803" y="-393.8" font-family="Times New Roman,serif" font-size="14.00">Dim &#45; SIMM.REF:CS_REFERENCE(1.0.0).PI</text>
<text text-anchor="middle" x="803" y="-378.8" font-family="Times New Roman,serif" font-size="14.00">Party identifier [String]</text>
</a>
</g>
</g>
<!-- SIMM:EquitySecurityPosition(1.0.0)&#45;&gt;SIMM:Party(1.0.0) -->
<g id="edge2" class="edge">
<title>SIMM:EquitySecurityPosition(1.0.0):IPI&#45;&gt;SIMM:Party(1.0.0):PI</title>
<path fill="none" stroke="black" d="M634.14,-375.39C639.69,-379.63 644.03,-385.07 651.14,-387.79"/>
<polygon fill="black" stroke="black" points="626.46,-372.75 618.46,-365.24 621.73,-371.13 617,-369.5 617,-369.5 617,-369.5 621.73,-371.13 615.54,-373.76 626.46,-372.75 626.46,-372.75"/>
<ellipse fill="none" stroke="black" cx="630.24" cy="-374.05" rx="4" ry="4"/>
<polygon fill="black" stroke="black" points="660.87,-384.4 659.16,-394.25 657.19,-393.91 658.9,-384.06 660.87,-384.4"/>
<polyline fill="none" stroke="black" points="661,-389.5 656.07,-388.64 "/>
<polygon fill="black" stroke="black" points="655.94,-383.55 654.23,-393.4 652.26,-393.06 653.97,-383.2 655.94,-383.55"/>
<polyline fill="none" stroke="black" points="656.07,-388.64 651.15,-387.79 "/>
</g>
<!-- SIMM:FinancialAsset(1.0.0) -->
<g id="node3" class="node">
<title>SIMM:FinancialAsset(1.0.0)</title>
<g id="a_node3"><a xlink:href="http://localhost:8080/ws/public/sdmxapi/rest/datastructure/SIMM/FinancialAsset/1.0.0" xlink:title="Financial asset&#10;&#10;A financial asset is an Asset according to the used Accounting standard that is considered a Financial instrument according to IAS 32" target="_blank">
<path fill="none" stroke="black" d="M342,-430C342,-430 600,-430 600,-430 606,-430 612,-436 612,-442 612,-442 612,-517 612,-517 612,-523 606,-529 600,-529 600,-529 342,-529 342,-529 336,-529 330,-523 330,-517 330,-517 330,-442 330,-442 330,-436 336,-430 342,-430"/>
<text text-anchor="middle" x="371" y="-513.8" font-family="Times New Roman,serif" font-size="14.00">SIMM</text>
<polyline fill="none" stroke="black" points="412,-506 412,-529 "/>
<text text-anchor="middle" x="475.5" y="-513.8" font-family="Times New Roman,serif" font-size="14.00">FinancialAsset</text>
<polyline fill="none" stroke="black" points="539,-506 539,-529 "/>
<text text-anchor="middle" x="575.5" y="-513.8" font-family="Times New Roman,serif" font-size="14.00">1.0.0</text>
<polyline fill="none" stroke="black" points="330,-506 612,-506 "/>
<text text-anchor="middle" x="471" y="-490.8" font-family="Times New Roman,serif" font-size="14.00">Dim &#45; SIMM.REF:CS_REFERENCE(1.0.0).ID</text>
<text text-anchor="middle" x="471" y="-475.8" font-family="Times New Roman,serif" font-size="14.00">ID of an abstract entity [Integer]</text>
<polyline fill="none" stroke="black" points="330,-468 612,-468 "/>
<text text-anchor="middle" x="471" y="-452.8" font-family="Times New Roman,serif" font-size="14.00">Att &#45; SIMM.REF:CS_REFERENCE(1.0.0).CA</text>
<text text-anchor="middle" x="471" y="-437.8" font-family="Times New Roman,serif" font-size="14.00">Carrying amount [Integer]</text>
</a>
</g>
</g>
<!-- SIMM:FinancialAsset_ESP(1.0.0) -->
<g id="node4" class="node">
<title>SIMM:FinancialAsset_ESP(1.0.0)</title>
<g id="a_node4"><a xlink:href="http://localhost:8080/ws/public/sdmxapi/rest/datastructure/SIMM/FinancialAsset_ESP/1.0.0" xlink:title="Financial asset in the form of an Equity security position" target="_blank">
<path fill="none" stroke="black" d="M12,-347.5C12,-347.5 277,-347.5 277,-347.5 283,-347.5 289,-353.5 289,-359.5 289,-359.5 289,-487.5 289,-487.5 289,-493.5 283,-499.5 277,-499.5 277,-499.5 12,-499.5 12,-499.5 6,-499.5 0,-493.5 0,-487.5 0,-487.5 0,-359.5 0,-359.5 0,-353.5 6,-347.5 12,-347.5"/>
<text text-anchor="middle" x="36.5" y="-484.3" font-family="Times New Roman,serif" font-size="14.00">SIMM</text>
<polyline fill="none" stroke="black" points="73,-476.5 73,-499.5 "/>
<text text-anchor="middle" x="148.5" y="-484.3" font-family="Times New Roman,serif" font-size="14.00">FinancialAsset_ESP</text>
<polyline fill="none" stroke="black" points="224,-476.5 224,-499.5 "/>
<text text-anchor="middle" x="256.5" y="-484.3" font-family="Times New Roman,serif" font-size="14.00">1.0.0</text>
<polyline fill="none" stroke="black" points="0,-476.5 289,-476.5 "/>
<text text-anchor="middle" x="144.5" y="-461.3" font-family="Times New Roman,serif" font-size="14.00">Dim &#45; SIMM.REF:CS_REFERENCE(1.0.0).AC</text>
<text text-anchor="middle" x="144.5" y="-446.3" font-family="Times New Roman,serif" font-size="14.00">Accounting classification</text>
<text text-anchor="middle" x="144.5" y="-431.3" font-family="Times New Roman,serif" font-size="14.00">[🧾SIMM.REF:CL_AC(1.0.0)]</text>
<polyline fill="none" stroke="black" points="0,-423.5 289,-423.5 "/>
<text text-anchor="middle" x="144.5" y="-408.3" font-family="Times New Roman,serif" font-size="14.00">Dim &#45; SIMM.REF:CS_REFERENCE(1.0.0).IPI</text>
<text text-anchor="middle" x="144.5" y="-393.3" font-family="Times New Roman,serif" font-size="14.00">Investor Party identifier [String]</text>
<polyline fill="none" stroke="black" points="0,-385.5 289,-385.5 "/>
<text text-anchor="middle" x="144.5" y="-370.3" font-family="Times New Roman,serif" font-size="14.00">Dim &#45; SIMM.REF:CS_REFERENCE(1.0.0).ESI</text>
<text text-anchor="middle" x="144.5" y="-355.3" font-family="Times New Roman,serif" font-size="14.00">Equity security identifier [String]</text>
</a>
</g>
</g>
<!-- SIMM:FinancialAsset_ESP(1.0.0)&#45;&gt;SIMM:EquitySecurityPosition(1.0.0) -->
<g id="edge3" class="edge">
<title>SIMM:FinancialAsset_ESP(1.0.0):ESI&#45;&gt;SIMM:EquitySecurityPosition(1.0.0):ESI</title>
<path fill="none" stroke="black" d="M304,-355.89C307.58,-348.43 309.34,-338.91 315.11,-333.91"/>
<polygon fill="black" stroke="black" points="297.17,-360.73 286.4,-362.83 293.08,-363.61 289,-366.5 289,-366.5 289,-366.5 293.08,-363.61 291.6,-370.17 297.17,-360.73 297.17,-360.73"/>
<ellipse fill="none" stroke="black" cx="300.43" cy="-358.42" rx="4" ry="4"/>
<polygon fill="black" stroke="black" points="322.42,-326.1 325.69,-335.55 323.79,-336.2 320.53,-326.75 322.42,-326.1"/>
<polyline fill="none" stroke="black" points="325,-330.5 320.27,-332.13 "/>
<polygon fill="black" stroke="black" points="317.7,-327.73 320.96,-337.18 319.07,-337.84 315.81,-328.38 317.7,-327.73"/>
<polyline fill="none" stroke="black" points="320.27,-332.13 315.55,-333.76 "/>
</g>
<!-- SIMM:FinancialAsset_ESP(1.0.0)&#45;&gt;SIMM:FinancialAsset(1.0.0) -->
<g id="edge4" class="edge">
<title>SIMM:FinancialAsset_ESP(1.0.0):AC&#45;&gt;SIMM:FinancialAsset(1.0.0):ID</title>
<path fill="none" stroke="black" d="M289,-450.5C309.05,-450.5 306.72,-475.87 319.08,-484.6"/>
<polygon fill="none" stroke="black" points="318.42,-488.05 329,-487.5 320.38,-481.33 318.42,-488.05"/>
</g>
<!-- SIMM:FinancialAsset_Inst(1.0.0) -->
<g id="node5" class="node">
<title>SIMM:FinancialAsset_Inst(1.0.0)</title>
<g id="a_node5"><a xlink:href="http://localhost:8080/ws/public/sdmxapi/rest/datastructure/SIMM/FinancialAsset_Inst/1.0.0" xlink:title="Financial asset in the form of an instrument" target="_blank">
<path fill="none" stroke="black" d="M18,-210C18,-210 271,-210 271,-210 277,-210 283,-216 283,-222 283,-222 283,-297 283,-297 283,-303 277,-309 271,-309 271,-309 18,-309 18,-309 12,-309 6,-303 6,-297 6,-297 6,-222 6,-222 6,-216 12,-210 18,-210"/>
<text text-anchor="middle" x="41.5" y="-293.8" font-family="Times New Roman,serif" font-size="14.00">SIMM</text>
<polyline fill="none" stroke="black" points="77,-286 77,-309 "/>
<text text-anchor="middle" x="149" y="-293.8" font-family="Times New Roman,serif" font-size="14.00">FinancialAsset_Inst</text>
<polyline fill="none" stroke="black" points="221,-286 221,-309 "/>
<text text-anchor="middle" x="252" y="-293.8" font-family="Times New Roman,serif" font-size="14.00">1.0.0</text>
<polyline fill="none" stroke="black" points="6,-286 283,-286 "/>
<text text-anchor="middle" x="144.5" y="-270.8" font-family="Times New Roman,serif" font-size="14.00">Dim &#45; SIMM.REF:CS_REFERENCE(1.0.0).II</text>
<text text-anchor="middle" x="144.5" y="-255.8" font-family="Times New Roman,serif" font-size="14.00">Instrument identifier [String]</text>
<polyline fill="none" stroke="black" points="6,-248 283,-248 "/>
<text text-anchor="middle" x="144.5" y="-232.8" font-family="Times New Roman,serif" font-size="14.00">Att &#45; SIMM.REF:CS_REFERENCE(1.0.0).AI</text>
<text text-anchor="middle" x="144.5" y="-217.8" font-family="Times New Roman,serif" font-size="14.00">Accumulated impairment [Integer]</text>
</a>
</g>
</g>
<!-- SIMM:FinancialAsset_Inst(1.0.0)&#45;&gt;SIMM:FinancialAsset(1.0.0) -->
<g id="edge5" class="edge">
<title>SIMM:FinancialAsset_Inst(1.0.0):II&#45;&gt;SIMM:FinancialAsset(1.0.0):ID</title>
<path fill="none" stroke="black" d="M284.5,-267.5C380.56,-267.5 240.4,-471.47 318.92,-486.61"/>
<polygon fill="none" stroke="black" points="318.73,-490.11 329,-487.5 319.35,-483.14 318.73,-490.11"/>
</g>
<!-- SIMM:Instrument(1.0.0) -->
<g id="node6" class="node">
<title>SIMM:Instrument(1.0.0)</title>
<g id="a_node6"><a xlink:href="http://localhost:8080/ws/public/sdmxapi/rest/datastructure/SIMM/Instrument/1.0.0" xlink:title="Instrument" target="_blank">
<path fill="none" stroke="black" d="M337,-102.5C337,-102.5 605,-102.5 605,-102.5 611,-102.5 617,-108.5 617,-114.5 617,-114.5 617,-242.5 617,-242.5 617,-248.5 611,-254.5 605,-254.5 605,-254.5 337,-254.5 337,-254.5 331,-254.5 325,-248.5 325,-242.5 325,-242.5 325,-114.5 325,-114.5 325,-108.5 331,-102.5 337,-102.5"/>
<text text-anchor="middle" x="371" y="-239.3" font-family="Times New Roman,serif" font-size="14.00">SIMM</text>
<polyline fill="none" stroke="black" points="417,-231.5 417,-254.5 "/>
<text text-anchor="middle" x="475" y="-239.3" font-family="Times New Roman,serif" font-size="14.00">Instrument</text>
<polyline fill="none" stroke="black" points="533,-231.5 533,-254.5 "/>
<text text-anchor="middle" x="575" y="-239.3" font-family="Times New Roman,serif" font-size="14.00">1.0.0</text>
<polyline fill="none" stroke="black" points="325,-231.5 617,-231.5 "/>
<text text-anchor="middle" x="471" y="-216.3" font-family="Times New Roman,serif" font-size="14.00">Dim &#45; SIMM.REF:CS_REFERENCE(1.0.0).II</text>
<text text-anchor="middle" x="471" y="-201.3" font-family="Times New Roman,serif" font-size="14.00">Instrument identifier [String]</text>
<polyline fill="none" stroke="black" points="325,-193.5 617,-193.5 "/>
<text text-anchor="middle" x="471" y="-178.3" font-family="Times New Roman,serif" font-size="14.00">Att &#45; SIMM.REF:CS_REFERENCE(1.0.0).ONA</text>
<text text-anchor="middle" x="471" y="-163.3" font-family="Times New Roman,serif" font-size="14.00">Outstanding nominal amount [Integer]</text>
<polyline fill="none" stroke="black" points="325,-155.5 617,-155.5 "/>
<text text-anchor="middle" x="471" y="-140.3" font-family="Times New Roman,serif" font-size="14.00">Att &#45; SIMM.REF:CS_REFERENCE(1.0.0).CUR</text>
<text text-anchor="middle" x="471" y="-125.3" font-family="Times New Roman,serif" font-size="14.00">Currency</text>
<text text-anchor="middle" x="471" y="-110.3" font-family="Times New Roman,serif" font-size="14.00">[🧾SIMM.REF:CL_CUR(1.0.0)]</text>
</a>
</g>
</g>
<!-- SIMM:FinancialAsset_Inst(1.0.0)&#45;&gt;SIMM:Instrument(1.0.0) -->
<g id="edge6" class="edge">
<title>SIMM:FinancialAsset_Inst(1.0.0):II&#45;&gt;SIMM:Instrument(1.0.0):II</title>
<path fill="none" stroke="black" d="M296.91,-262.42C307.06,-251.04 302.63,-223.8 315.32,-215.17"/>
<polygon fill="black" stroke="black" points="287.32,-271.75 283.53,-262.49 285.38,-261.74 289.17,-270.99 287.32,-271.75"/>
<polyline fill="none" stroke="black" points="284.5,-267.5 289.13,-265.61 "/>
<ellipse fill="none" stroke="black" cx="292.83" cy="-264.09" rx="4" ry="4"/>
<polygon fill="black" stroke="black" points="322.71,-207.95 325.37,-217.59 323.44,-218.12 320.78,-208.48 322.71,-207.95"/>
<polyline fill="none" stroke="black" points="325,-212.5 320.18,-213.83 "/>
<polygon fill="black" stroke="black" points="317.89,-209.28 320.55,-218.92 318.62,-219.45 315.96,-209.81 317.89,-209.28"/>
<polyline fill="none" stroke="black" points="320.18,-213.83 315.36,-215.16 "/>
</g>
</g>
</svg>
