<?xml version="1.0" encoding="UTF-8" standalone="no"?>
<!DOCTYPE svg PUBLIC "-//W3C//DTD SVG 1.1//EN"
 "http://www.w3.org/Graphics/SVG/1.1/DTD/svg11.dtd">
<!-- Generated by graphviz version 2.47.0 (20210316.0004)
 -->
<!-- Title: DependecyMap Pages: 1 -->
<svg width="1333pt" height="1441pt"
 viewBox="0.00 0.00 1333.00 1441.00" xmlns="http://www.w3.org/2000/svg" xmlns:xlink="http://www.w3.org/1999/xlink">
<g id="graph0" class="graph" transform="scale(1 1) rotate(0) translate(4 1437)">
<title>DependecyMap</title>
<polygon fill="white" stroke="transparent" points="-4,4 -4,-1437 1329,-1437 1329,4 -4,4"/>
<text text-anchor="middle" x="662.5" y="-53.8" font-family="Times New Roman,serif" font-size="14.00">SDMX Data Model Visualisation Generator</text>
<text text-anchor="middle" x="662.5" y="-38.8" font-family="Times New Roman,serif" font-size="14.00">https://github.com/brainwasher/sdmxtube</text>
<text text-anchor="middle" x="662.5" y="-7.8" font-family="Times New Roman,serif" font-size="14.00">graph generated 2021&#45;04&#45;08T11:47:12.754+02:00</text>
<g id="clust2" class="cluster">
<title>cluster_SS_SP01_AC</title>
<polygon fill="floralwhite" stroke="black" points="8,-125 8,-851 1317,-851 1317,-125 8,-125"/>
<text text-anchor="middle" x="662.5" y="-835.8" font-family="Times New Roman,serif" font-size="14.00">Implementation Model AnaCredit example for SiMM Solution Proposal 01</text>
<text text-anchor="middle" x="662.5" y="-820.8" font-family="Times New Roman,serif" font-size="14.00">SIMM:SS_SP01_AC(1.0.0)</text>
<text text-anchor="middle" x="662.5" y="-805.8" font-family="Times New Roman,serif" font-size="14.00"> </text>
</g>
<g id="clust1" class="cluster">
<title>cluster_SS_SP01</title>
<polygon fill="floralwhite" stroke="black" points="46.5,-859 46.5,-1425 1263.5,-1425 1263.5,-859 46.5,-859"/>
<text text-anchor="middle" x="655" y="-1409.8" font-family="Times New Roman,serif" font-size="14.00">Logical Data Model for SiMM Solution Proposal 01</text>
<text text-anchor="middle" x="655" y="-1394.8" font-family="Times New Roman,serif" font-size="14.00">SIMM:SS_SP01(1.0.0)</text>
<text text-anchor="middle" x="655" y="-1379.8" font-family="Times New Roman,serif" font-size="14.00"> </text>
</g>
<!-- SIMM:ANCRDT_ENTTY_D(1.0.0) -->
<g id="node1" class="node">
<title>SIMM:ANCRDT_ENTTY_D(1.0.0)</title>
<g id="a_node1"><a xlink:href="http://localhost:8080/ws/public/sdmxapi/rest/datastructure/SIMM/ANCRDT_ENTTY_D/1.0.0" xlink:title="Entity" target="_blank">
<path fill="azure" stroke="black" d="M28,-576C28,-576 411,-576 411,-576 417,-576 423,-582 423,-588 423,-588 423,-762 423,-762 423,-768 417,-774 411,-774 411,-774 28,-774 28,-774 22,-774 16,-768 16,-762 16,-762 16,-588 16,-588 16,-582 22,-576 28,-576"/>
<text text-anchor="middle" x="219.5" y="-758.8" font-family="Times New Roman,serif" font-size="14.00">Entity</text>
<polyline fill="none" stroke="black" points="16,-751 423,-751 "/>
<text text-anchor="middle" x="70" y="-735.8" font-family="Times New Roman,serif" font-size="14.00">SIMM</text>
<polyline fill="none" stroke="black" points="124,-728 124,-751 "/>
<text text-anchor="middle" x="224" y="-735.8" font-family="Times New Roman,serif" font-size="14.00">ANCRDT_ENTTY_D</text>
<polyline fill="none" stroke="black" points="324,-728 324,-751 "/>
<text text-anchor="middle" x="373.5" y="-735.8" font-family="Times New Roman,serif" font-size="14.00">1.0.0</text>
<polyline fill="none" stroke="black" points="16,-728 423,-728 "/>
<text text-anchor="middle" x="219.5" y="-712.8" font-family="Times New Roman,serif" font-size="14.00">Dim &#45; SIMM.REF:CS_REFERENCE(1.0.0).RIAD_II</text>
<text text-anchor="middle" x="219.5" y="-697.8" font-family="Times New Roman,serif" font-size="14.00">RIAD internal identifier</text>
<polyline fill="none" stroke="black" points="16,-690 423,-690 "/>
<text text-anchor="middle" x="219.5" y="-674.8" font-family="Times New Roman,serif" font-size="14.00">Tim &#45; SDMX:CROSS_DOMAIN_CONCEPTS(2.0).TIME_PERIOD</text>
<text text-anchor="middle" x="219.5" y="-659.8" font-family="Times New Roman,serif" font-size="14.00">Time period [ObservationalTimePeriod]</text>
<polyline fill="none" stroke="black" points="16,-652 423,-652 "/>
<text text-anchor="middle" x="219.5" y="-636.8" font-family="Times New Roman,serif" font-size="14.00">Att &#45; SIMM.REF:CS_REFERENCE(1.0.0).IS</text>
<text text-anchor="middle" x="219.5" y="-621.8" font-family="Times New Roman,serif" font-size="14.00">Institutional sector</text>
<polyline fill="none" stroke="black" points="16,-614 423,-614 "/>
<text text-anchor="middle" x="219.5" y="-598.8" font-family="Times New Roman,serif" font-size="14.00">Att &#45; SIMM.REF:CS_REFERENCE(1.0.0).EA</text>
<text text-anchor="middle" x="219.5" y="-583.8" font-family="Times New Roman,serif" font-size="14.00">Economic activity</text>
</a>
</g>
</g>
<!-- SIMM:ANCRDT_ENTTY_INSTRMNT_D(1.0.0) -->
<g id="node2" class="node">
<title>SIMM:ANCRDT_ENTTY_INSTRMNT_D(1.0.0)</title>
<g id="a_node2"><a xlink:href="http://localhost:8080/ws/public/sdmxapi/rest/datastructure/SIMM/ANCRDT_ENTTY_INSTRMNT_D/1.0.0" xlink:title="Equity&#45;instrument" target="_blank">
<path fill="azure" stroke="black" d="M914,-339C914,-339 1297,-339 1297,-339 1303,-339 1309,-345 1309,-351 1309,-351 1309,-639 1309,-639 1309,-645 1303,-651 1297,-651 1297,-651 914,-651 914,-651 908,-651 902,-645 902,-639 902,-639 902,-351 902,-351 902,-345 908,-339 914,-339"/>
<text text-anchor="middle" x="1105.5" y="-635.8" font-family="Times New Roman,serif" font-size="14.00">Equity&#45;instrument</text>
<polyline fill="none" stroke="black" points="902,-628 1309,-628 "/>
<text text-anchor="middle" x="942.5" y="-612.8" font-family="Times New Roman,serif" font-size="14.00">SIMM</text>
<polyline fill="none" stroke="black" points="983,-605 983,-628 "/>
<text text-anchor="middle" x="1109.5" y="-612.8" font-family="Times New Roman,serif" font-size="14.00">ANCRDT_ENTTY_INSTRMNT_D</text>
<polyline fill="none" stroke="black" points="1236,-605 1236,-628 "/>
<text text-anchor="middle" x="1272.5" y="-612.8" font-family="Times New Roman,serif" font-size="14.00">1.0.0</text>
<polyline fill="none" stroke="black" points="902,-605 1309,-605 "/>
<text text-anchor="middle" x="1105.5" y="-589.8" font-family="Times New Roman,serif" font-size="14.00">Dim &#45; SIMM.REF:CS_REFERENCE(1.0.0).RIAD_II</text>
<text text-anchor="middle" x="1105.5" y="-574.8" font-family="Times New Roman,serif" font-size="14.00">RIAD internal identifier</text>
<polyline fill="none" stroke="black" points="902,-567 1309,-567 "/>
<text text-anchor="middle" x="1105.5" y="-551.8" font-family="Times New Roman,serif" font-size="14.00">Dim &#45; SIMM.REF:CS_REFERENCE(1.0.0).OAI</text>
<text text-anchor="middle" x="1105.5" y="-536.8" font-family="Times New Roman,serif" font-size="14.00">Observed agent identifier</text>
<polyline fill="none" stroke="black" points="902,-529 1309,-529 "/>
<text text-anchor="middle" x="1105.5" y="-513.8" font-family="Times New Roman,serif" font-size="14.00">Dim &#45; SIMM.REF:CS_REFERENCE(1.0.0).II</text>
<text text-anchor="middle" x="1105.5" y="-498.8" font-family="Times New Roman,serif" font-size="14.00">Instrument identifier [String]</text>
<polyline fill="none" stroke="black" points="902,-491 1309,-491 "/>
<text text-anchor="middle" x="1105.5" y="-475.8" font-family="Times New Roman,serif" font-size="14.00">Dim &#45; SIMM.REF:CS_REFERENCE(1.0.0).ER</text>
<text text-anchor="middle" x="1105.5" y="-460.8" font-family="Times New Roman,serif" font-size="14.00">Entity role</text>
<polyline fill="none" stroke="black" points="902,-453 1309,-453 "/>
<text text-anchor="middle" x="1105.5" y="-437.8" font-family="Times New Roman,serif" font-size="14.00">Dim &#45; SIMM.REF:CS_REFERENCE(1.0.0).CI</text>
<text text-anchor="middle" x="1105.5" y="-422.8" font-family="Times New Roman,serif" font-size="14.00">Contract identifier</text>
<polyline fill="none" stroke="black" points="902,-415 1309,-415 "/>
<text text-anchor="middle" x="1105.5" y="-399.8" font-family="Times New Roman,serif" font-size="14.00">Tim &#45; SDMX:CROSS_DOMAIN_CONCEPTS(2.0).TIME_PERIOD</text>
<text text-anchor="middle" x="1105.5" y="-384.8" font-family="Times New Roman,serif" font-size="14.00">Time period [ObservationalTimePeriod]</text>
<polyline fill="none" stroke="black" points="902,-377 1309,-377 "/>
<text text-anchor="middle" x="1105.5" y="-361.8" font-family="Times New Roman,serif" font-size="14.00">Att &#45; SIMM.REF:CS_REFERENCE(1.0.0).JLA</text>
<text text-anchor="middle" x="1105.5" y="-346.8" font-family="Times New Roman,serif" font-size="14.00">Joint liability amount</text>
</a>
</g>
</g>
<!-- SIMM:ANCRDT_ENTTY_D(1.0.0)&#45;&gt;SIMM:ANCRDT_ENTTY_INSTRMNT_D(1.0.0) -->
<g id="edge7" class="edge">
<title>SIMM:ANCRDT_ENTTY_D(1.0.0):RIAD_II&#45;&gt;SIMM:ANCRDT_ENTTY_INSTRMNT_D(1.0.0):RIAD_II</title>
<path fill="none" stroke="black" d="M437.11,-714.29C448.96,-727.95 434.97,-764.34 459,-779 536.21,-826.11 796.43,-836.79 866,-779 930.24,-725.64 824.57,-597.64 891.86,-586.74"/>
<polygon fill="black" stroke="black" points="432.36,-712.51 424.58,-704.79 427.68,-710.76 423,-709 423,-709 423,-709 427.68,-710.76 421.42,-713.21 432.36,-712.51 432.36,-712.51"/>
<polygon fill="black" stroke="black" points="431.54,-717.54 435.06,-708.18 436.93,-708.88 433.42,-718.25 431.54,-717.54"/>
<polyline fill="none" stroke="black" points="432.36,-712.51 437.05,-714.27 "/>
<polygon fill="black" stroke="black" points="900.64,-581.09 901.37,-591.06 899.37,-591.21 898.64,-581.23 900.64,-581.09"/>
<polyline fill="none" stroke="black" points="902,-586 897.01,-586.37 "/>
<polygon fill="black" stroke="black" points="895.65,-581.45 896.38,-591.43 894.39,-591.57 893.66,-581.6 895.65,-581.45"/>
<polyline fill="none" stroke="black" points="897.01,-586.37 892.03,-586.73 "/>
</g>
<!-- SIMM:ANCRDT_PRTCTN_RCVD_D(1.0.0) -->
<g id="node5" class="node">
<title>SIMM:ANCRDT_PRTCTN_RCVD_D(1.0.0)</title>
<g id="a_node5"><a xlink:href="http://localhost:8080/ws/public/sdmxapi/rest/datastructure/SIMM/ANCRDT_PRTCTN_RCVD_D/1.0.0" xlink:title="Protection Received" target="_blank">
<path fill="azure" stroke="black" d="M471,-495C471,-495 854,-495 854,-495 860,-495 866,-501 866,-507 866,-507 866,-757 866,-757 866,-763 860,-769 854,-769 854,-769 471,-769 471,-769 465,-769 459,-763 459,-757 459,-757 459,-507 459,-507 459,-501 465,-495 471,-495"/>
<text text-anchor="middle" x="662.5" y="-753.8" font-family="Times New Roman,serif" font-size="14.00">Protection Received</text>
<polyline fill="none" stroke="black" points="459,-746 866,-746 "/>
<text text-anchor="middle" x="503.5" y="-730.8" font-family="Times New Roman,serif" font-size="14.00">SIMM</text>
<polyline fill="none" stroke="black" points="548,-723 548,-746 "/>
<text text-anchor="middle" x="666.5" y="-730.8" font-family="Times New Roman,serif" font-size="14.00">ANCRDT_PRTCTN_RCVD_D</text>
<polyline fill="none" stroke="black" points="785,-723 785,-746 "/>
<text text-anchor="middle" x="825.5" y="-730.8" font-family="Times New Roman,serif" font-size="14.00">1.0.0</text>
<polyline fill="none" stroke="black" points="459,-723 866,-723 "/>
<text text-anchor="middle" x="662.5" y="-707.8" font-family="Times New Roman,serif" font-size="14.00">Dim &#45; SIMM.REF:CS_REFERENCE(1.0.0).PPI</text>
<text text-anchor="middle" x="662.5" y="-692.8" font-family="Times New Roman,serif" font-size="14.00">Protection provider identifier</text>
<polyline fill="none" stroke="black" points="459,-685 866,-685 "/>
<text text-anchor="middle" x="662.5" y="-669.8" font-family="Times New Roman,serif" font-size="14.00">Dim &#45; SIMM.REF:CS_REFERENCE(1.0.0).PI</text>
<text text-anchor="middle" x="662.5" y="-654.8" font-family="Times New Roman,serif" font-size="14.00">Party identifier [String]</text>
<polyline fill="none" stroke="black" points="459,-647 866,-647 "/>
<text text-anchor="middle" x="662.5" y="-631.8" font-family="Times New Roman,serif" font-size="14.00">Dim &#45; SIMM.REF:CS_REFERENCE(1.0.0).OAI</text>
<text text-anchor="middle" x="662.5" y="-616.8" font-family="Times New Roman,serif" font-size="14.00">Observed agent identifier</text>
<polyline fill="none" stroke="black" points="459,-609 866,-609 "/>
<text text-anchor="middle" x="662.5" y="-593.8" font-family="Times New Roman,serif" font-size="14.00">Tim &#45; SDMX:CROSS_DOMAIN_CONCEPTS(2.0).TIME_PERIOD</text>
<text text-anchor="middle" x="662.5" y="-578.8" font-family="Times New Roman,serif" font-size="14.00">Time period [ObservationalTimePeriod]</text>
<polyline fill="none" stroke="black" points="459,-571 866,-571 "/>
<text text-anchor="middle" x="662.5" y="-555.8" font-family="Times New Roman,serif" font-size="14.00">Att &#45; SIMM.REF:CS_REFERENCE(1.0.0).TOP</text>
<text text-anchor="middle" x="662.5" y="-540.8" font-family="Times New Roman,serif" font-size="14.00">Type of protection</text>
<polyline fill="none" stroke="black" points="459,-533 866,-533 "/>
<text text-anchor="middle" x="662.5" y="-517.8" font-family="Times New Roman,serif" font-size="14.00">Att &#45; SIMM.REF:CS_REFERENCE(1.0.0).MDOP</text>
<text text-anchor="middle" x="662.5" y="-502.8" font-family="Times New Roman,serif" font-size="14.00">Maturity date of the protection [GregorianDay]</text>
</a>
</g>
</g>
<!-- SIMM:ANCRDT_ENTTY_D(1.0.0)&#45;&gt;SIMM:ANCRDT_PRTCTN_RCVD_D(1.0.0) -->
<g id="edge11" class="edge">
<title>SIMM:ANCRDT_ENTTY_D(1.0.0):RIAD_II&#45;&gt;SIMM:ANCRDT_PRTCTN_RCVD_D(1.0.0):OAI</title>
<path fill="none" stroke="black" d="M438.5,-699.71C446.74,-681.26 432.73,-640.88 449.13,-630.48"/>
<polygon fill="black" stroke="black" points="431.58,-703.86 420.69,-705.14 427.29,-706.43 423,-709 423,-709 423,-709 427.29,-706.43 425.31,-712.86 431.58,-703.86 431.58,-703.86"/>
<ellipse fill="none" stroke="black" cx="435.01" cy="-701.8" rx="4" ry="4"/>
<polygon fill="black" stroke="black" points="456.81,-623.4 459.25,-633.09 457.31,-633.58 454.87,-623.88 456.81,-623.4"/>
<polyline fill="none" stroke="black" points="459,-628 454.15,-629.22 "/>
<polygon fill="black" stroke="black" points="451.96,-624.61 454.4,-634.31 452.46,-634.8 450.02,-625.1 451.96,-624.61"/>
<polyline fill="none" stroke="black" points="454.15,-629.22 449.3,-630.44 "/>
</g>
<!-- SIMM:ANCRDT_INSTRMNT_D(1.0.0) -->
<g id="node3" class="node">
<title>SIMM:ANCRDT_INSTRMNT_D(1.0.0)</title>
<g id="a_node3"><a xlink:href="http://localhost:8080/ws/public/sdmxapi/rest/datastructure/SIMM/ANCRDT_INSTRMNT_D/1.0.0" xlink:title="Instrument" target="_blank">
<path fill="azure" stroke="black" d="M471,-134C471,-134 854,-134 854,-134 860,-134 866,-140 866,-146 866,-146 866,-464 866,-464 866,-470 860,-476 854,-476 854,-476 471,-476 471,-476 465,-476 459,-470 459,-464 459,-464 459,-146 459,-146 459,-140 465,-134 471,-134"/>
<text text-anchor="middle" x="662.5" y="-460.8" font-family="Times New Roman,serif" font-size="14.00">Instrument</text>
<polyline fill="none" stroke="black" points="459,-453 866,-453 "/>
<text text-anchor="middle" x="508.5" y="-437.8" font-family="Times New Roman,serif" font-size="14.00">SIMM</text>
<polyline fill="none" stroke="black" points="558,-430 558,-453 "/>
<text text-anchor="middle" x="666.5" y="-437.8" font-family="Times New Roman,serif" font-size="14.00">ANCRDT_INSTRMNT_D</text>
<polyline fill="none" stroke="black" points="775,-430 775,-453 "/>
<text text-anchor="middle" x="820.5" y="-437.8" font-family="Times New Roman,serif" font-size="14.00">1.0.0</text>
<polyline fill="none" stroke="black" points="459,-430 866,-430 "/>
<text text-anchor="middle" x="662.5" y="-414.8" font-family="Times New Roman,serif" font-size="14.00">Dim &#45; SIMM.REF:CS_REFERENCE(1.0.0).OAI</text>
<text text-anchor="middle" x="662.5" y="-399.8" font-family="Times New Roman,serif" font-size="14.00">Observed agent identifier</text>
<polyline fill="none" stroke="black" points="459,-392 866,-392 "/>
<text text-anchor="middle" x="662.5" y="-376.8" font-family="Times New Roman,serif" font-size="14.00">Dim &#45; SIMM.REF:CS_REFERENCE(1.0.0).II</text>
<text text-anchor="middle" x="662.5" y="-361.8" font-family="Times New Roman,serif" font-size="14.00">Instrument identifier [String]</text>
<polyline fill="none" stroke="black" points="459,-354 866,-354 "/>
<text text-anchor="middle" x="662.5" y="-338.8" font-family="Times New Roman,serif" font-size="14.00">Dim &#45; SIMM.REF:CS_REFERENCE(1.0.0).CI</text>
<text text-anchor="middle" x="662.5" y="-323.8" font-family="Times New Roman,serif" font-size="14.00">Contract identifier</text>
<polyline fill="none" stroke="black" points="459,-316 866,-316 "/>
<text text-anchor="middle" x="662.5" y="-300.8" font-family="Times New Roman,serif" font-size="14.00">Tim &#45; SDMX:CROSS_DOMAIN_CONCEPTS(2.0).TIME_PERIOD</text>
<text text-anchor="middle" x="662.5" y="-285.8" font-family="Times New Roman,serif" font-size="14.00">Time period [ObservationalTimePeriod]</text>
<polyline fill="none" stroke="black" points="459,-278 866,-278 "/>
<text text-anchor="middle" x="662.5" y="-262.8" font-family="Times New Roman,serif" font-size="14.00">Att &#45; SIMM.REF:CS_REFERENCE(1.0.0).AC</text>
<text text-anchor="middle" x="662.5" y="-247.8" font-family="Times New Roman,serif" font-size="14.00">Accounting classification</text>
<text text-anchor="middle" x="662.5" y="-232.8" font-family="Times New Roman,serif" font-size="14.00">[🧾SIMM.REF:CL_AC(1.0.0)]</text>
<polyline fill="none" stroke="black" points="459,-225 866,-225 "/>
<text text-anchor="middle" x="662.5" y="-209.8" font-family="Times New Roman,serif" font-size="14.00">Att &#45; SIMM.REF:CS_REFERENCE(1.0.0).TOI</text>
<text text-anchor="middle" x="662.5" y="-194.8" font-family="Times New Roman,serif" font-size="14.00">Type of instrument</text>
<polyline fill="none" stroke="black" points="459,-187 866,-187 "/>
<text text-anchor="middle" x="662.5" y="-171.8" font-family="Times New Roman,serif" font-size="14.00">Att &#45; SIMM.REF:CS_REFERENCE(1.0.0).CUR</text>
<text text-anchor="middle" x="662.5" y="-156.8" font-family="Times New Roman,serif" font-size="14.00">Currency</text>
<text text-anchor="middle" x="662.5" y="-141.8" font-family="Times New Roman,serif" font-size="14.00">[🧾SIMM.REF:CL_CUR(1.0.0)]</text>
</a>
</g>
</g>
<!-- SIMM:ANCRDT_INSTRMNT_D(1.0.0)&#45;&gt;SIMM:ANCRDT_ENTTY_INSTRMNT_D(1.0.0) -->
<g id="edge8" class="edge">
<title>SIMM:ANCRDT_INSTRMNT_D(1.0.0):II&#45;&gt;SIMM:ANCRDT_ENTTY_INSTRMNT_D(1.0.0):II</title>
<path fill="none" stroke="black" d="M880.77,-376.95C910.05,-397.84 854.35,-494.88 891.82,-508.43"/>
<polygon fill="black" stroke="black" points="875.66,-375.58 867.16,-368.65 870.83,-374.29 866,-373 866,-373 866,-373 870.83,-374.29 864.84,-377.35 875.66,-375.58 875.66,-375.58"/>
<polygon fill="black" stroke="black" points="875.33,-380.67 877.92,-371.01 879.85,-371.53 877.27,-381.19 875.33,-380.67"/>
<polyline fill="none" stroke="black" points="875.66,-375.58 880.49,-376.88 "/>
<polygon fill="black" stroke="black" points="901.77,-504.91 900.25,-514.79 898.27,-514.48 899.8,-504.6 901.77,-504.91"/>
<polyline fill="none" stroke="black" points="902,-510 897.06,-509.24 "/>
<polygon fill="black" stroke="black" points="896.83,-504.14 895.31,-514.03 893.33,-513.72 894.86,-503.84 896.83,-504.14"/>
<polyline fill="none" stroke="black" points="897.06,-509.24 892.12,-508.47 "/>
</g>
<!-- SIMM:ANCRDT_INSTRMNT_PRTCTN_RCVD_D(1.0.0) -->
<g id="node4" class="node">
<title>SIMM:ANCRDT_INSTRMNT_PRTCTN_RCVD_D(1.0.0)</title>
<g id="a_node4"><a xlink:href="http://localhost:8080/ws/public/sdmxapi/rest/datastructure/SIMM/ANCRDT_INSTRMNT_PRTCTN_RCVD_D/1.0.0" xlink:title="Instrument&#45;Protection Received" target="_blank">
<path fill="azure" stroke="black" d="M28,-216C28,-216 411,-216 411,-216 417,-216 423,-222 423,-228 423,-228 423,-516 423,-516 423,-522 417,-528 411,-528 411,-528 28,-528 28,-528 22,-528 16,-522 16,-516 16,-516 16,-228 16,-228 16,-222 22,-216 28,-216"/>
<text text-anchor="middle" x="219.5" y="-512.8" font-family="Times New Roman,serif" font-size="14.00">Instrument&#45;Protection Received</text>
<polyline fill="none" stroke="black" points="16,-505 423,-505 "/>
<text text-anchor="middle" x="47" y="-489.8" font-family="Times New Roman,serif" font-size="14.00">SIMM</text>
<polyline fill="none" stroke="black" points="78,-482 78,-505 "/>
<text text-anchor="middle" x="223.5" y="-489.8" font-family="Times New Roman,serif" font-size="14.00">ANCRDT_INSTRMNT_PRTCTN_RCVD_D</text>
<polyline fill="none" stroke="black" points="369,-482 369,-505 "/>
<text text-anchor="middle" x="396" y="-489.8" font-family="Times New Roman,serif" font-size="14.00">1.0.0</text>
<polyline fill="none" stroke="black" points="16,-482 423,-482 "/>
<text text-anchor="middle" x="219.5" y="-466.8" font-family="Times New Roman,serif" font-size="14.00">Dim &#45; SIMM.REF:CS_REFERENCE(1.0.0).PI</text>
<text text-anchor="middle" x="219.5" y="-451.8" font-family="Times New Roman,serif" font-size="14.00">Party identifier [String]</text>
<polyline fill="none" stroke="black" points="16,-444 423,-444 "/>
<text text-anchor="middle" x="219.5" y="-428.8" font-family="Times New Roman,serif" font-size="14.00">Dim &#45; SIMM.REF:CS_REFERENCE(1.0.0).OAI</text>
<text text-anchor="middle" x="219.5" y="-413.8" font-family="Times New Roman,serif" font-size="14.00">Observed agent identifier</text>
<polyline fill="none" stroke="black" points="16,-406 423,-406 "/>
<text text-anchor="middle" x="219.5" y="-390.8" font-family="Times New Roman,serif" font-size="14.00">Dim &#45; SIMM.REF:CS_REFERENCE(1.0.0).II</text>
<text text-anchor="middle" x="219.5" y="-375.8" font-family="Times New Roman,serif" font-size="14.00">Instrument identifier [String]</text>
<polyline fill="none" stroke="black" points="16,-368 423,-368 "/>
<text text-anchor="middle" x="219.5" y="-352.8" font-family="Times New Roman,serif" font-size="14.00">Dim &#45; SIMM.REF:CS_REFERENCE(1.0.0).CI</text>
<text text-anchor="middle" x="219.5" y="-337.8" font-family="Times New Roman,serif" font-size="14.00">Contract identifier</text>
<polyline fill="none" stroke="black" points="16,-330 423,-330 "/>
<text text-anchor="middle" x="219.5" y="-314.8" font-family="Times New Roman,serif" font-size="14.00">Tim &#45; SDMX:CROSS_DOMAIN_CONCEPTS(2.0).TIME_PERIOD</text>
<text text-anchor="middle" x="219.5" y="-299.8" font-family="Times New Roman,serif" font-size="14.00">Time period [ObservationalTimePeriod]</text>
<polyline fill="none" stroke="black" points="16,-292 423,-292 "/>
<text text-anchor="middle" x="219.5" y="-276.8" font-family="Times New Roman,serif" font-size="14.00">Att &#45; SIMM.REF:CS_REFERENCE(1.0.0).TPPCAP</text>
<text text-anchor="middle" x="219.5" y="-261.8" font-family="Times New Roman,serif" font-size="14.00">Third party priority claims against the protection</text>
<polyline fill="none" stroke="black" points="16,-254 423,-254 "/>
<text text-anchor="middle" x="219.5" y="-238.8" font-family="Times New Roman,serif" font-size="14.00">Att &#45; SIMM.REF:CS_REFERENCE(1.0.0).PAV</text>
<text text-anchor="middle" x="219.5" y="-223.8" font-family="Times New Roman,serif" font-size="14.00">Protection allocated value</text>
</a>
</g>
</g>
<!-- SIMM:ANCRDT_INSTRMNT_PRTCTN_RCVD_D(1.0.0)&#45;&gt;SIMM:ANCRDT_INSTRMNT_D(1.0.0) -->
<g id="edge9" class="edge">
<title>SIMM:ANCRDT_INSTRMNT_PRTCTN_RCVD_D(1.0.0):II&#45;&gt;SIMM:ANCRDT_INSTRMNT_D(1.0.0):II</title>
<path fill="none" stroke="black" d="M437.41,-382.57C441.28,-380.01 444.55,-376.91 449.08,-374.95"/>
<polygon fill="black" stroke="black" points="432.56,-384.06 421.68,-382.7 427.78,-385.53 423,-387 423,-387 423,-387 427.78,-385.53 424.32,-391.3 432.56,-384.06 432.56,-384.06"/>
<polygon fill="black" stroke="black" points="434.98,-388.55 432.04,-378.99 433.96,-378.4 436.9,-387.96 434.98,-388.55"/>
<polyline fill="none" stroke="black" points="432.56,-384.06 437.34,-382.59 "/>
<polygon fill="black" stroke="black" points="457.06,-368.29 458.98,-378.1 457.02,-378.48 455.09,-368.67 457.06,-368.29"/>
<polyline fill="none" stroke="black" points="459,-373 454.09,-373.96 "/>
<polygon fill="black" stroke="black" points="452.15,-369.25 454.08,-379.06 452.11,-379.45 450.19,-369.63 452.15,-369.25"/>
<polyline fill="none" stroke="black" points="454.09,-373.96 449.19,-374.93 "/>
</g>
<!-- SIMM:ANCRDT_INSTRMNT_PRTCTN_RCVD_D(1.0.0)&#45;&gt;SIMM:ANCRDT_PRTCTN_RCVD_D(1.0.0) -->
<g id="edge10" class="edge">
<title>SIMM:ANCRDT_INSTRMNT_PRTCTN_RCVD_D(1.0.0):PI&#45;&gt;SIMM:ANCRDT_PRTCTN_RCVD_D(1.0.0):PI</title>
<path fill="none" stroke="black" d="M440.66,-466.7C490.25,-492.97 384.95,-650.86 448.83,-664.99"/>
<polygon fill="black" stroke="black" points="432.79,-465.05 423.92,-458.6 427.89,-464.02 423,-463 423,-463 423,-463 427.89,-464.02 422.08,-467.4 432.79,-465.05 432.79,-465.05"/>
<ellipse fill="none" stroke="black" cx="436.7" cy="-465.87" rx="4" ry="4"/>
<polygon fill="black" stroke="black" points="458.5,-660.93 457.51,-670.88 455.52,-670.68 456.51,-660.73 458.5,-660.93"/>
<polyline fill="none" stroke="black" points="459,-666 454.02,-665.51 "/>
<polygon fill="black" stroke="black" points="453.52,-660.43 452.53,-670.38 450.54,-670.18 451.53,-660.23 453.52,-660.43"/>
<polyline fill="none" stroke="black" points="454.02,-665.51 449.05,-665.01 "/>
</g>
<!-- SIMM:EquitySecurity(1.0.0) -->
<g id="node6" class="node">
<title>SIMM:EquitySecurity(1.0.0)</title>
<g id="a_node6"><a xlink:href="http://localhost:8080/ws/public/sdmxapi/rest/datastructure/SIMM/EquitySecurity/1.0.0" xlink:title="Equity Security" target="_blank">
<path fill="azure" stroke="black" d="M967.5,-1084.5C967.5,-1084.5 1243.5,-1084.5 1243.5,-1084.5 1249.5,-1084.5 1255.5,-1090.5 1255.5,-1096.5 1255.5,-1096.5 1255.5,-1247.5 1255.5,-1247.5 1255.5,-1253.5 1249.5,-1259.5 1243.5,-1259.5 1243.5,-1259.5 967.5,-1259.5 967.5,-1259.5 961.5,-1259.5 955.5,-1253.5 955.5,-1247.5 955.5,-1247.5 955.5,-1096.5 955.5,-1096.5 955.5,-1090.5 961.5,-1084.5 967.5,-1084.5"/>
<text text-anchor="middle" x="1105.5" y="-1244.3" font-family="Times New Roman,serif" font-size="14.00">Equity Security</text>
<polyline fill="none" stroke="black" points="955.5,-1236.5 1255.5,-1236.5 "/>
<text text-anchor="middle" x="999.5" y="-1221.3" font-family="Times New Roman,serif" font-size="14.00">SIMM</text>
<polyline fill="none" stroke="black" points="1043.5,-1213.5 1043.5,-1236.5 "/>
<text text-anchor="middle" x="1110" y="-1221.3" font-family="Times New Roman,serif" font-size="14.00">EquitySecurity</text>
<polyline fill="none" stroke="black" points="1176.5,-1213.5 1176.5,-1236.5 "/>
<text text-anchor="middle" x="1216" y="-1221.3" font-family="Times New Roman,serif" font-size="14.00">1.0.0</text>
<polyline fill="none" stroke="black" points="955.5,-1213.5 1255.5,-1213.5 "/>
<text text-anchor="middle" x="1105.5" y="-1198.3" font-family="Times New Roman,serif" font-size="14.00">Dim &#45; SIMM.REF:CS_REFERENCE(1.0.0).ESI</text>
<text text-anchor="middle" x="1105.5" y="-1183.3" font-family="Times New Roman,serif" font-size="14.00">Equity security identifier [String]</text>
<polyline fill="none" stroke="black" points="955.5,-1175.5 1255.5,-1175.5 "/>
<text text-anchor="middle" x="1105.5" y="-1160.3" font-family="Times New Roman,serif" font-size="14.00">Att &#45; SIMM.REF:CS_REFERENCE(1.0.0).CUR</text>
<text text-anchor="middle" x="1105.5" y="-1145.3" font-family="Times New Roman,serif" font-size="14.00">Currency</text>
<text text-anchor="middle" x="1105.5" y="-1130.3" font-family="Times New Roman,serif" font-size="14.00">[🧾SIMM.REF:CL_CUR(1.0.0)]</text>
<polyline fill="none" stroke="black" points="955.5,-1122.5 1255.5,-1122.5 "/>
<text text-anchor="middle" x="1105.5" y="-1107.3" font-family="Times New Roman,serif" font-size="14.00">Att &#45; SIMM.REF:CS_REFERENCE(1.0.0).LFMD</text>
<text text-anchor="middle" x="1105.5" y="-1092.3" font-family="Times New Roman,serif" font-size="14.00">Legal final maturity date [GregorianDay]</text>
</a>
</g>
</g>
<!-- SIMM:EquitySecurityPosition(1.0.0) -->
<g id="node7" class="node">
<title>SIMM:EquitySecurityPosition(1.0.0)</title>
<g id="a_node7"><a xlink:href="http://localhost:8080/ws/public/sdmxapi/rest/datastructure/SIMM/EquitySecurityPosition/1.0.0" xlink:title="Equity security position" target="_blank">
<path fill="azure" stroke="black" d="M529.5,-1203C529.5,-1203 795.5,-1203 795.5,-1203 801.5,-1203 807.5,-1209 807.5,-1215 807.5,-1215 807.5,-1351 807.5,-1351 807.5,-1357 801.5,-1363 795.5,-1363 795.5,-1363 529.5,-1363 529.5,-1363 523.5,-1363 517.5,-1357 517.5,-1351 517.5,-1351 517.5,-1215 517.5,-1215 517.5,-1209 523.5,-1203 529.5,-1203"/>
<text text-anchor="middle" x="662.5" y="-1347.8" font-family="Times New Roman,serif" font-size="14.00">Equity security position</text>
<polyline fill="none" stroke="black" points="517.5,-1340 807.5,-1340 "/>
<text text-anchor="middle" x="552" y="-1324.8" font-family="Times New Roman,serif" font-size="14.00">SIMM</text>
<polyline fill="none" stroke="black" points="586.5,-1317 586.5,-1340 "/>
<text text-anchor="middle" x="666.5" y="-1324.8" font-family="Times New Roman,serif" font-size="14.00">EquitySecurityPosition</text>
<polyline fill="none" stroke="black" points="746.5,-1317 746.5,-1340 "/>
<text text-anchor="middle" x="777" y="-1324.8" font-family="Times New Roman,serif" font-size="14.00">1.0.0</text>
<polyline fill="none" stroke="black" points="517.5,-1317 807.5,-1317 "/>
<text text-anchor="middle" x="662.5" y="-1301.8" font-family="Times New Roman,serif" font-size="14.00">Dim &#45; SIMM.REF:CS_REFERENCE(1.0.0).IPI</text>
<text text-anchor="middle" x="662.5" y="-1286.8" font-family="Times New Roman,serif" font-size="14.00">Investor Party identifier [String]</text>
<polyline fill="none" stroke="black" points="517.5,-1279 807.5,-1279 "/>
<text text-anchor="middle" x="662.5" y="-1263.8" font-family="Times New Roman,serif" font-size="14.00">Dim &#45; SIMM.REF:CS_REFERENCE(1.0.0).ESI</text>
<text text-anchor="middle" x="662.5" y="-1248.8" font-family="Times New Roman,serif" font-size="14.00">Equity security identifier [String]</text>
<polyline fill="none" stroke="black" points="517.5,-1241 807.5,-1241 "/>
<text text-anchor="middle" x="662.5" y="-1225.8" font-family="Times New Roman,serif" font-size="14.00">Att &#45; SIMM.REF:CS_REFERENCE(1.0.0).NOS</text>
<text text-anchor="middle" x="662.5" y="-1210.8" font-family="Times New Roman,serif" font-size="14.00">Number of shares [Integer]</text>
</a>
</g>
</g>
<!-- SIMM:EquitySecurityPosition(1.0.0)&#45;&gt;SIMM:EquitySecurity(1.0.0) -->
<g id="edge1" class="edge">
<title>SIMM:EquitySecurityPosition(1.0.0):ESI&#45;&gt;SIMM:EquitySecurity(1.0.0):ESI</title>
<path fill="none" stroke="black" d="M826.47,-1258.46C877.85,-1249.15 888.85,-1200.73 944.4,-1195.47"/>
<polygon fill="black" stroke="black" points="818.46,-1259.14 808.12,-1255.52 813.48,-1259.57 808.5,-1260 808.5,-1260 808.5,-1260 813.48,-1259.57 808.88,-1264.48 818.46,-1259.14 818.46,-1259.14"/>
<ellipse fill="none" stroke="black" cx="822.45" cy="-1258.8" rx="4" ry="4"/>
<polygon fill="black" stroke="black" points="953.27,-1190.05 953.73,-1200.04 951.73,-1200.13 951.27,-1190.14 953.27,-1190.05"/>
<polyline fill="none" stroke="black" points="954.5,-1195 949.51,-1195.23 "/>
<polygon fill="black" stroke="black" points="948.28,-1190.28 948.74,-1200.27 946.74,-1200.36 946.28,-1190.37 948.28,-1190.28"/>
<polyline fill="none" stroke="black" points="949.51,-1195.23 944.51,-1195.46 "/>
</g>
<!-- SIMM:Party(1.0.0) -->
<g id="node12" class="node">
<title>SIMM:Party(1.0.0)</title>
<g id="a_node12"><a xlink:href="http://localhost:8080/ws/public/sdmxapi/rest/datastructure/SIMM/Party/1.0.0" xlink:title="Party" target="_blank">
<path fill="azure" stroke="black" d="M977,-1279C977,-1279 1234,-1279 1234,-1279 1240,-1279 1246,-1285 1246,-1291 1246,-1291 1246,-1351 1246,-1351 1246,-1357 1240,-1363 1234,-1363 1234,-1363 977,-1363 977,-1363 971,-1363 965,-1357 965,-1351 965,-1351 965,-1291 965,-1291 965,-1285 971,-1279 977,-1279"/>
<text text-anchor="middle" x="1105.5" y="-1347.8" font-family="Times New Roman,serif" font-size="14.00">Party</text>
<polyline fill="none" stroke="black" points="965,-1340 1246,-1340 "/>
<text text-anchor="middle" x="1014.5" y="-1324.8" font-family="Times New Roman,serif" font-size="14.00">SIMM</text>
<polyline fill="none" stroke="black" points="1064,-1317 1064,-1340 "/>
<text text-anchor="middle" x="1110" y="-1324.8" font-family="Times New Roman,serif" font-size="14.00">Party</text>
<polyline fill="none" stroke="black" points="1156,-1317 1156,-1340 "/>
<text text-anchor="middle" x="1201" y="-1324.8" font-family="Times New Roman,serif" font-size="14.00">1.0.0</text>
<polyline fill="none" stroke="black" points="965,-1317 1246,-1317 "/>
<text text-anchor="middle" x="1105.5" y="-1301.8" font-family="Times New Roman,serif" font-size="14.00">Dim &#45; SIMM.REF:CS_REFERENCE(1.0.0).PI</text>
<text text-anchor="middle" x="1105.5" y="-1286.8" font-family="Times New Roman,serif" font-size="14.00">Party identifier [String]</text>
</a>
</g>
</g>
<!-- SIMM:EquitySecurityPosition(1.0.0)&#45;&gt;SIMM:Party(1.0.0) -->
<g id="edge2" class="edge">
<title>SIMM:EquitySecurityPosition(1.0.0):IPI&#45;&gt;SIMM:Party(1.0.0):PI</title>
<path fill="none" stroke="black" d="M826.6,-1298C877.99,-1298 898.69,-1298 953.29,-1298"/>
<polygon fill="black" stroke="black" points="818.5,-1298 808.5,-1293.5 813.5,-1298 808.5,-1298 808.5,-1298 808.5,-1298 813.5,-1298 808.5,-1302.5 818.5,-1298 818.5,-1298"/>
<ellipse fill="none" stroke="black" cx="822.5" cy="-1298" rx="4" ry="4"/>
<polygon fill="black" stroke="black" points="962.5,-1293 962.5,-1303 960.5,-1303 960.5,-1293 962.5,-1293"/>
<polyline fill="none" stroke="black" points="963.5,-1298 958.5,-1298 "/>
<polygon fill="black" stroke="black" points="957.5,-1293 957.5,-1303 955.5,-1303 955.5,-1293 957.5,-1293"/>
<polyline fill="none" stroke="black" points="958.5,-1298 953.5,-1298 "/>
</g>
<!-- SIMM:FinancialAsset(1.0.0) -->
<g id="node8" class="node">
<title>SIMM:FinancialAsset(1.0.0)</title>
<g id="a_node8"><a xlink:href="http://localhost:8080/ws/public/sdmxapi/rest/datastructure/SIMM/FinancialAsset/1.0.0" xlink:title="Financial asset&#10;&#10;A financial asset is an Asset according to the used Accounting standard that is considered a Financial instrument according to IAS 32" target="_blank">
<path fill="azure" stroke="black" d="M533.5,-1062C533.5,-1062 791.5,-1062 791.5,-1062 797.5,-1062 803.5,-1068 803.5,-1074 803.5,-1074 803.5,-1172 803.5,-1172 803.5,-1178 797.5,-1184 791.5,-1184 791.5,-1184 533.5,-1184 533.5,-1184 527.5,-1184 521.5,-1178 521.5,-1172 521.5,-1172 521.5,-1074 521.5,-1074 521.5,-1068 527.5,-1062 533.5,-1062"/>
<text text-anchor="middle" x="662.5" y="-1168.8" font-family="Times New Roman,serif" font-size="14.00">Financial asset</text>
<polyline fill="none" stroke="black" points="521.5,-1161 803.5,-1161 "/>
<text text-anchor="middle" x="562.5" y="-1145.8" font-family="Times New Roman,serif" font-size="14.00">SIMM</text>
<polyline fill="none" stroke="black" points="603.5,-1138 603.5,-1161 "/>
<text text-anchor="middle" x="667" y="-1145.8" font-family="Times New Roman,serif" font-size="14.00">FinancialAsset</text>
<polyline fill="none" stroke="black" points="730.5,-1138 730.5,-1161 "/>
<text text-anchor="middle" x="767" y="-1145.8" font-family="Times New Roman,serif" font-size="14.00">1.0.0</text>
<polyline fill="none" stroke="black" points="521.5,-1138 803.5,-1138 "/>
<text text-anchor="middle" x="662.5" y="-1122.8" font-family="Times New Roman,serif" font-size="14.00">Dim &#45; SIMM.REF:CS_REFERENCE(1.0.0).ID</text>
<text text-anchor="middle" x="662.5" y="-1107.8" font-family="Times New Roman,serif" font-size="14.00">ID of an abstract entity [Integer]</text>
<polyline fill="none" stroke="black" points="521.5,-1100 803.5,-1100 "/>
<text text-anchor="middle" x="662.5" y="-1084.8" font-family="Times New Roman,serif" font-size="14.00">Att &#45; SIMM.REF:CS_REFERENCE(1.0.0).CA</text>
<text text-anchor="middle" x="662.5" y="-1069.8" font-family="Times New Roman,serif" font-size="14.00">Carrying amount [Integer]</text>
</a>
</g>
</g>
<!-- SIMM:FinancialAsset_ESP(1.0.0) -->
<g id="node9" class="node">
<title>SIMM:FinancialAsset_ESP(1.0.0)</title>
<g id="a_node9"><a xlink:href="http://localhost:8080/ws/public/sdmxapi/rest/datastructure/SIMM/FinancialAsset_ESP/1.0.0" xlink:title="Financial asset in the form of an Equity security position" target="_blank">
<path fill="azure" stroke="black" d="M66.5,-1156.5C66.5,-1156.5 372.5,-1156.5 372.5,-1156.5 378.5,-1156.5 384.5,-1162.5 384.5,-1168.5 384.5,-1168.5 384.5,-1319.5 384.5,-1319.5 384.5,-1325.5 378.5,-1331.5 372.5,-1331.5 372.5,-1331.5 66.5,-1331.5 66.5,-1331.5 60.5,-1331.5 54.5,-1325.5 54.5,-1319.5 54.5,-1319.5 54.5,-1168.5 54.5,-1168.5 54.5,-1162.5 60.5,-1156.5 66.5,-1156.5"/>
<text text-anchor="middle" x="219.5" y="-1316.3" font-family="Times New Roman,serif" font-size="14.00">Financial asset in the form of an Equity security position</text>
<polyline fill="none" stroke="black" points="54.5,-1308.5 384.5,-1308.5 "/>
<text text-anchor="middle" x="98" y="-1293.3" font-family="Times New Roman,serif" font-size="14.00">SIMM</text>
<polyline fill="none" stroke="black" points="141.5,-1285.5 141.5,-1308.5 "/>
<text text-anchor="middle" x="223.5" y="-1293.3" font-family="Times New Roman,serif" font-size="14.00">FinancialAsset_ESP</text>
<polyline fill="none" stroke="black" points="305.5,-1285.5 305.5,-1308.5 "/>
<text text-anchor="middle" x="345" y="-1293.3" font-family="Times New Roman,serif" font-size="14.00">1.0.0</text>
<polyline fill="none" stroke="black" points="54.5,-1285.5 384.5,-1285.5 "/>
<text text-anchor="middle" x="219.5" y="-1270.3" font-family="Times New Roman,serif" font-size="14.00">Dim &#45; SIMM.REF:CS_REFERENCE(1.0.0).AC</text>
<text text-anchor="middle" x="219.5" y="-1255.3" font-family="Times New Roman,serif" font-size="14.00">Accounting classification</text>
<text text-anchor="middle" x="219.5" y="-1240.3" font-family="Times New Roman,serif" font-size="14.00">[🧾SIMM.REF:CL_AC(1.0.0)]</text>
<polyline fill="none" stroke="black" points="54.5,-1232.5 384.5,-1232.5 "/>
<text text-anchor="middle" x="219.5" y="-1217.3" font-family="Times New Roman,serif" font-size="14.00">Dim &#45; SIMM.REF:CS_REFERENCE(1.0.0).IPI</text>
<text text-anchor="middle" x="219.5" y="-1202.3" font-family="Times New Roman,serif" font-size="14.00">Investor Party identifier [String]</text>
<polyline fill="none" stroke="black" points="54.5,-1194.5 384.5,-1194.5 "/>
<text text-anchor="middle" x="219.5" y="-1179.3" font-family="Times New Roman,serif" font-size="14.00">Dim &#45; SIMM.REF:CS_REFERENCE(1.0.0).ESI</text>
<text text-anchor="middle" x="219.5" y="-1164.3" font-family="Times New Roman,serif" font-size="14.00">Equity security identifier [String]</text>
</a>
</g>
</g>
<!-- SIMM:FinancialAsset_ESP(1.0.0)&#45;&gt;SIMM:EquitySecurityPosition(1.0.0) -->
<g id="edge3" class="edge">
<title>SIMM:FinancialAsset_ESP(1.0.0):ESI&#45;&gt;SIMM:EquitySecurityPosition(1.0.0):ESI</title>
<path fill="none" stroke="black" d="M403.44,-1177.19C451.25,-1189.74 453.62,-1252.31 506.42,-1259.35"/>
<polygon fill="black" stroke="black" points="395.43,-1176.21 386.04,-1170.53 390.46,-1175.6 385.5,-1175 385.5,-1175 385.5,-1175 390.46,-1175.6 384.96,-1179.47 395.43,-1176.21 395.43,-1176.21"/>
<ellipse fill="none" stroke="black" cx="399.4" cy="-1176.69" rx="4" ry="4"/>
<polygon fill="black" stroke="black" points="515.82,-1254.95 515.18,-1264.93 513.19,-1264.8 513.83,-1254.82 515.82,-1254.95"/>
<polyline fill="none" stroke="black" points="516.5,-1260 511.51,-1259.68 "/>
<polygon fill="black" stroke="black" points="510.83,-1254.63 510.19,-1264.61 508.2,-1264.48 508.84,-1254.5 510.83,-1254.63"/>
<polyline fill="none" stroke="black" points="511.51,-1259.68 506.52,-1259.36 "/>
</g>
<!-- SIMM:FinancialAsset_ESP(1.0.0)&#45;&gt;SIMM:FinancialAsset(1.0.0) -->
<g id="edge4" class="edge">
<title>SIMM:FinancialAsset_ESP(1.0.0):AC&#45;&gt;SIMM:FinancialAsset(1.0.0):ID</title>
<path fill="none" stroke="black" d="M385.5,-1259C468.39,-1259 436.96,-1130.25 510.47,-1119.69"/>
<polygon fill="none" stroke="black" points="510.76,-1123.18 520.5,-1119 510.28,-1116.19 510.76,-1123.18"/>
</g>
<!-- SIMM:FinancialAsset_Inst(1.0.0) -->
<g id="node10" class="node">
<title>SIMM:FinancialAsset_Inst(1.0.0)</title>
<g id="a_node10"><a xlink:href="http://localhost:8080/ws/public/sdmxapi/rest/datastructure/SIMM/FinancialAsset_Inst/1.0.0" xlink:title="Financial asset in the form of an instrument" target="_blank">
<path fill="azure" stroke="black" d="M93,-952C93,-952 346,-952 346,-952 352,-952 358,-958 358,-964 358,-964 358,-1062 358,-1062 358,-1068 352,-1074 346,-1074 346,-1074 93,-1074 93,-1074 87,-1074 81,-1068 81,-1062 81,-1062 81,-964 81,-964 81,-958 87,-952 93,-952"/>
<text text-anchor="middle" x="219.5" y="-1058.8" font-family="Times New Roman,serif" font-size="14.00">Financial asset in the form of an instrument</text>
<polyline fill="none" stroke="black" points="81,-1051 358,-1051 "/>
<text text-anchor="middle" x="116.5" y="-1035.8" font-family="Times New Roman,serif" font-size="14.00">SIMM</text>
<polyline fill="none" stroke="black" points="152,-1028 152,-1051 "/>
<text text-anchor="middle" x="224" y="-1035.8" font-family="Times New Roman,serif" font-size="14.00">FinancialAsset_Inst</text>
<polyline fill="none" stroke="black" points="296,-1028 296,-1051 "/>
<text text-anchor="middle" x="327" y="-1035.8" font-family="Times New Roman,serif" font-size="14.00">1.0.0</text>
<polyline fill="none" stroke="black" points="81,-1028 358,-1028 "/>
<text text-anchor="middle" x="219.5" y="-1012.8" font-family="Times New Roman,serif" font-size="14.00">Dim &#45; SIMM.REF:CS_REFERENCE(1.0.0).II</text>
<text text-anchor="middle" x="219.5" y="-997.8" font-family="Times New Roman,serif" font-size="14.00">Instrument identifier [String]</text>
<polyline fill="none" stroke="black" points="81,-990 358,-990 "/>
<text text-anchor="middle" x="219.5" y="-974.8" font-family="Times New Roman,serif" font-size="14.00">Att &#45; SIMM.REF:CS_REFERENCE(1.0.0).AI</text>
<text text-anchor="middle" x="219.5" y="-959.8" font-family="Times New Roman,serif" font-size="14.00">Accumulated impairment [Integer]</text>
</a>
</g>
</g>
<!-- SIMM:FinancialAsset_Inst(1.0.0)&#45;&gt;SIMM:FinancialAsset(1.0.0) -->
<g id="edge5" class="edge">
<title>SIMM:FinancialAsset_Inst(1.0.0):II&#45;&gt;SIMM:FinancialAsset(1.0.0):ID</title>
<path fill="none" stroke="black" d="M359.5,-1009C442.61,-1009 434.68,-1110.16 510.32,-1118.46"/>
<polygon fill="none" stroke="black" points="510.33,-1121.97 520.5,-1119 510.7,-1114.98 510.33,-1121.97"/>
</g>
<!-- SIMM:Instrument(1.0.0) -->
<g id="node11" class="node">
<title>SIMM:Instrument(1.0.0)</title>
<g id="a_node11"><a xlink:href="http://localhost:8080/ws/public/sdmxapi/rest/datastructure/SIMM/Instrument/1.0.0" xlink:title="Instrument" target="_blank">
<path fill="azure" stroke="black" d="M528.5,-867.5C528.5,-867.5 796.5,-867.5 796.5,-867.5 802.5,-867.5 808.5,-873.5 808.5,-879.5 808.5,-879.5 808.5,-1030.5 808.5,-1030.5 808.5,-1036.5 802.5,-1042.5 796.5,-1042.5 796.5,-1042.5 528.5,-1042.5 528.5,-1042.5 522.5,-1042.5 516.5,-1036.5 516.5,-1030.5 516.5,-1030.5 516.5,-879.5 516.5,-879.5 516.5,-873.5 522.5,-867.5 528.5,-867.5"/>
<text text-anchor="middle" x="662.5" y="-1027.3" font-family="Times New Roman,serif" font-size="14.00">Instrument</text>
<polyline fill="none" stroke="black" points="516.5,-1019.5 808.5,-1019.5 "/>
<text text-anchor="middle" x="562.5" y="-1004.3" font-family="Times New Roman,serif" font-size="14.00">SIMM</text>
<polyline fill="none" stroke="black" points="608.5,-996.5 608.5,-1019.5 "/>
<text text-anchor="middle" x="666.5" y="-1004.3" font-family="Times New Roman,serif" font-size="14.00">Instrument</text>
<polyline fill="none" stroke="black" points="724.5,-996.5 724.5,-1019.5 "/>
<text text-anchor="middle" x="766.5" y="-1004.3" font-family="Times New Roman,serif" font-size="14.00">1.0.0</text>
<polyline fill="none" stroke="black" points="516.5,-996.5 808.5,-996.5 "/>
<text text-anchor="middle" x="662.5" y="-981.3" font-family="Times New Roman,serif" font-size="14.00">Dim &#45; SIMM.REF:CS_REFERENCE(1.0.0).II</text>
<text text-anchor="middle" x="662.5" y="-966.3" font-family="Times New Roman,serif" font-size="14.00">Instrument identifier [String]</text>
<polyline fill="none" stroke="black" points="516.5,-958.5 808.5,-958.5 "/>
<text text-anchor="middle" x="662.5" y="-943.3" font-family="Times New Roman,serif" font-size="14.00">Att &#45; SIMM.REF:CS_REFERENCE(1.0.0).ONA</text>
<text text-anchor="middle" x="662.5" y="-928.3" font-family="Times New Roman,serif" font-size="14.00">Outstanding nominal amount [Integer]</text>
<polyline fill="none" stroke="black" points="516.5,-920.5 808.5,-920.5 "/>
<text text-anchor="middle" x="662.5" y="-905.3" font-family="Times New Roman,serif" font-size="14.00">Att &#45; SIMM.REF:CS_REFERENCE(1.0.0).CUR</text>
<text text-anchor="middle" x="662.5" y="-890.3" font-family="Times New Roman,serif" font-size="14.00">Currency</text>
<text text-anchor="middle" x="662.5" y="-875.3" font-family="Times New Roman,serif" font-size="14.00">[🧾SIMM.REF:CL_CUR(1.0.0)]</text>
</a>
</g>
</g>
<!-- SIMM:FinancialAsset_Inst(1.0.0)&#45;&gt;SIMM:Instrument(1.0.0) -->
<g id="edge6" class="edge">
<title>SIMM:FinancialAsset_Inst(1.0.0):II&#45;&gt;SIMM:Instrument(1.0.0):II</title>
<path fill="none" stroke="black" d="M372.5,-1008.63C429.15,-1005.32 447.45,-980.8 505.43,-978.22"/>
<polygon fill="black" stroke="black" points="360.64,-1013.97 360.36,-1003.97 362.36,-1003.92 362.64,-1013.91 360.64,-1013.97"/>
<polyline fill="none" stroke="black" points="359.5,-1009 364.5,-1008.86 "/>
<ellipse fill="none" stroke="black" cx="368.5" cy="-1008.74" rx="4" ry="4"/>
<polygon fill="black" stroke="black" points="514.39,-973.02 514.61,-983.02 512.61,-983.06 512.39,-973.07 514.39,-973.02"/>
<polyline fill="none" stroke="black" points="515.5,-978 510.5,-978.11 "/>
<polygon fill="black" stroke="black" points="509.39,-973.13 509.61,-983.13 507.61,-983.17 507.39,-973.18 509.39,-973.13"/>
<polyline fill="none" stroke="black" points="510.5,-978.11 505.5,-978.22 "/>
</g>
</g>
</svg>
